<svg id="Layer_1" data-name="Layer 1" xmlns="http://www.w3.org/2000/svg" viewBox="0 0 16 12"><defs><style>.cls-1{fill-rule:evenodd;}</style></defs><path class="cls-1" d="M14.8,2.8a1.24,1.24,0,0,0-.55-.44,1.3,1.3,0,0,0-.73-.09,1.32,1.32,0,0,0-.66.32l-1.61,1.5V3a2.11,2.11,0,0,0,0-.26,2.2,2.2,0,0,0-.64-1.33A2.25,2.25,0,0,0,9,.75H2.25A2.25,2.25,0,0,0,0,3V9a2.25,2.25,0,0,0,2.25,2.25H9a2.25,2.25,0,0,0,1.59-.66,2.2,2.2,0,0,0,.64-1.33,2.28,2.28,0,0,0,0-.26V7.91l1.62,1.5a1.29,1.29,0,0,0,.87.34,1.35,1.35,0,0,0,.52-.11,1.23,1.23,0,0,0,.54-.44A1.16,1.16,0,0,0,15,8.53V3.47A1.23,1.23,0,0,0,14.8,2.8ZM10.25,9A1.26,1.26,0,0,1,9,10.25H2.25a1.22,1.22,0,0,1-.88-.37A1.22,1.22,0,0,1,1,9V3a1.22,1.22,0,0,1,.37-.88,1.22,1.22,0,0,1,.88-.37H9A1.26,1.26,0,0,1,10.25,3ZM14,8.53a.17.17,0,0,1,0,.11.16.16,0,0,1-.09.07h0l-.1,0a.32.32,0,0,1-.2-.08L10.66,6l2.88-2.68h0a.37.37,0,0,1,.14-.07.36.36,0,0,1,.18,0,.24.24,0,0,1,.11.09.21.21,0,0,1,0,.11Z"/></svg>