<svg id="Layer_1" data-name="Layer 1" xmlns="http://www.w3.org/2000/svg" xmlns:xlink="http://www.w3.org/1999/xlink" viewBox="0 0 18 18"><defs><style>.cls-1{fill:none;}.cls-2{clip-path:url(#clip-path);}</style><clipPath id="clip-path"><rect class="cls-1" y="1" width="16" height="16"/></clipPath></defs><g class="cls-2"><path d="M13.72,15.5h-9a1,1,0,1,1,0-2h9a1,1,0,0,1,0,2Zm-4.5-3H9.11a.79.79,0,0,1-.22-.05h0l-.1,0a1.11,1.11,0,0,1-.24-.16l-4-3.49a1,1,0,0,1,1.32-1.5L8.22,9.3V3a1,1,0,0,1,2,0V9.3l2.35-2.05a1,1,0,1,1,1.31,1.5l-4,3.49a.87.87,0,0,1-.23.16l-.08,0a1,1,0,0,1-.25.06H9.22Z"/></g></svg>