<svg viewBox="0 0 16 16" xmlns="http://www.w3.org/2000/svg">
<path d="M10.4333 13.0702C9.80623 13.0702 9.30001 12.4729 9.30001 11.7333C9.30001 11.0009 9.80623 10.4035 10.4333 10.4035C11.0604 10.4035 11.5667 11.0009 11.5667 11.7333C11.5667 12.4729 11.0604 13.0702 10.4333 13.0702ZM7.60001 7.46664C6.66312 7.46664 5.90001 6.86931 5.90001 6.13686C5.90001 5.39731 6.66312 4.79998 7.60001 4.79998C8.5369 4.79998 9.30001 5.39731 9.30001 6.13686C9.30001 6.86931 8.5369 7.46664 7.60001 7.46664ZM4.76668 13.0702C4.13957 13.0702 3.63334 12.4729 3.63334 11.7333C3.63334 11.0009 4.13957 10.4035 4.76668 10.4035C5.39379 10.4035 5.90001 11.0009 5.90001 11.7333C5.90001 12.4729 5.39379 13.0702 4.76668 13.0702ZM7.60001 5.33331C7.90979 5.33331 8.16667 5.57509 8.16667 5.86664C8.16667 6.1582 7.90979 6.39998 7.60001 6.39998C7.29023 6.39998 7.03334 6.1582 7.03334 5.86664C7.03334 5.57509 7.29023 5.33331 7.60001 5.33331ZM12.7 7.99998C12.4582 7.99998 12.224 8.04975 12.0124 8.1422C11.6498 7.70842 11.1587 7.33864 10.5693 7.0542C11 6.48531 11.2569 5.79553 11.2569 5.04886V5.0062C12.0804 4.84264 12.7 4.15286 12.7 3.32086C12.7 2.37509 11.8764 1.59998 10.8716 1.59998C10.3502 1.59998 9.86667 1.8062 9.54934 2.13331C8.96652 1.785 8.2904 1.60003 7.60001 1.60003C6.90962 1.60003 6.23349 1.785 5.65068 2.13331C5.33334 1.8062 4.84979 1.59998 4.32845 1.59998C3.32357 1.59998 2.50001 2.37509 2.50001 3.32086C2.50001 4.14575 3.11957 4.83553 3.93557 5.0062V5.04886C3.93557 5.79553 4.20001 6.49242 4.62312 7.0542C4.04134 7.33864 3.55023 7.70842 3.18757 8.1422C2.92937 8.03273 2.64611 7.98599 2.36374 8.00626C2.08137 8.02652 1.80892 8.11316 1.57135 8.25821C1.33377 8.40327 1.13867 8.60211 1.00391 8.83653C0.869152 9.07095 0.799045 9.33345 0.800013 9.59998C0.800013 10.4889 1.55557 11.2 2.50001 11.2H2.54534C2.51512 11.3706 2.50001 11.5555 2.50001 11.7333C2.50001 13.2053 3.51246 14.4 4.76668 14.4C5.52979 14.4 6.20223 13.952 6.61779 13.2693C6.93512 13.312 7.26001 13.3333 7.60001 13.3333C7.94001 13.3333 8.2649 13.312 8.58223 13.2693C8.99778 13.952 9.67023 14.4 10.4333 14.4C11.6876 14.4 12.7 13.2053 12.7 11.7333C12.7 11.5555 12.6849 11.3706 12.6547 11.2H12.7C13.6444 11.2 14.4 10.4889 14.4 9.59998C14.4 8.71109 13.6444 7.99998 12.7 7.99998Z" />
</svg>
