<svg id="Layer_1" data-name="Layer 1" xmlns="http://www.w3.org/2000/svg" viewBox="0 0 30 30"><path d="M27.59,9c.18-.56,0-1-.87-1H23.86a1.22,1.22,0,0,0-1.24.75,21.9,21.9,0,0,1-3.52,5.41c-.67.62-1,.82-1.34.82-.18,0-.46-.2-.46-.76V9c0-.67-.2-1-.8-1H12a.66.66,0,0,0-.72.61c0,.63,1,.78,1.13,2.58v3.9c0,.85-.16,1-.53,1-1,0-3.33-3.3-4.73-7.07-.28-.73-.56-1-1.29-1H3c-.81,0-1,.35-1,.75,0,.7,1,4.18,4.53,8.78a11.36,11.36,0,0,0,8.73,4.85c1.82,0,2-.38,2-1,0-3-.17-3.29.75-3.29.42,0,1.15.2,2.85,1.71,1.94,1.8,2.26,2.61,3.35,2.61h2.87c.81,0,1.23-.38,1-1.13-.55-1.57-4.23-4.79-4.39-5-.42-.5-.3-.72,0-1.17,0,0,3.5-4.55,3.86-6.1Z"/></svg>