<svg id="Layer_1" data-name="Layer 1" xmlns="http://www.w3.org/2000/svg" viewBox="0 0 383.33 384"><path d="M383.33,361.5V369a21.85,21.85,0,0,1-15,15h-7.48c-5.63-1.81-9.75-5.67-13.83-9.76q-76-76.31-152.12-152.48c-1-1-2.1-2-3.71-3.55a43.08,43.08,0,0,1-3,3.81Q112.29,298.15,36.37,374.25c-4.08,4.09-8.2,7.95-13.83,9.75H15.05c-3.43-2.13-7.47-3.67-10.17-6.5-7.34-7.71-6.23-18.59,2.19-27q77.4-77.57,154.84-155.09c1-1,2.46-1.68,4.55-3.08-2.28-1.82-3.54-2.64-4.58-3.68Q84.72,111.36,7.6,34A38.89,38.89,0,0,1,3.82,29.9,18.66,18.66,0,0,1,11.68,1.44C12.81,1,13.93.48,15.05,0h7.49c5.51,1.74,9.57,5.48,13.56,9.49q76.14,76.43,152.35,152.78c1,1,1.51,2.59,2.25,3.91l1.75-.65a40.06,40.06,0,0,1,3-3.8Q271.4,85.61,347.31,9.5c4-4,8.05-7.75,13.57-9.5h7.48c7.64,2.35,12.56,7.42,15,15v7.5c-1.8,5.64-5.65,9.77-9.73,13.86q-76.14,76.16-152.17,152.42c-1,1-2,2.09-3.41,3.55,1.41,1.22,2.61,2.12,3.66,3.17q75.82,75.94,151.65,151.88C377.5,351.55,381.46,355.75,383.33,361.5Z"/></svg>