<svg viewBox="0 0 18 18" xmlns="http://www.w3.org/2000/svg">
<path fill-rule="evenodd" clip-rule="evenodd" d="M2.87556 10.5658L1.6645 11.7785C1.51088 11.9378 1.42593 12.1509 1.42796 12.3722C1.42998 12.5934 1.51882 12.805 1.67533 12.9613C1.83184 13.1177 2.04351 13.2063 2.26474 13.2082C2.48597 13.21 2.69906 13.1248 2.85812 12.971L4.35775 11.4703C5.42537 12.0232 6.71462 12.4862 8.16756 12.6184V14.6248C8.16756 14.8486 8.25646 15.0632 8.41469 15.2214C8.57292 15.3797 8.78754 15.4685 9.01131 15.4685C9.23509 15.4685 9.4497 15.3797 9.60793 15.2214C9.76617 15.0632 9.85506 14.8486 9.85506 14.6248V12.6161C11.0627 12.503 12.1562 12.1627 13.1029 11.7324L14.9024 13.5335C15.0614 13.6873 15.2745 13.7725 15.4958 13.7707C15.717 13.7688 15.9287 13.6802 16.0852 13.5238C16.2417 13.3675 16.3305 13.1559 16.3325 12.9347C16.3346 12.7134 16.2496 12.5003 16.096 12.341L14.6453 10.8892C16.1022 9.95267 16.9465 8.99417 16.9465 8.99417C17.085 8.82483 17.1524 8.60831 17.1345 8.39025C17.1165 8.17219 17.0146 7.96962 16.8502 7.82522C16.6859 7.68082 16.4718 7.60587 16.2533 7.61617C16.0347 7.62647 15.8287 7.72121 15.6786 7.88042C15.6786 7.88042 12.9707 10.9685 9.00006 10.9685C5.02937 10.9685 2.3215 7.88042 2.3215 7.88042C2.17142 7.72121 1.9654 7.62647 1.74684 7.61617C1.52829 7.60587 1.31427 7.68082 1.14989 7.82522C0.985508 7.96962 0.883601 8.17219 0.865643 8.39025C0.847686 8.60831 0.91508 8.82483 1.05362 8.99417C1.05362 8.99417 1.71456 9.74455 2.87556 10.5658Z" />
</svg>
