<svg id="Layer_1" data-name="Layer 1" xmlns="http://www.w3.org/2000/svg" viewBox="0 0 15 15"><defs><style>.cls-1{fill-rule:evenodd;}</style></defs><path class="cls-1" d="M2.25,1.5a.75.75,0,0,0-.75.75v10.5a.75.75,0,0,0,.75.75h10.5a.75.75,0,0,0,.75-.75V9A.75.75,0,0,1,15,9v3.75A2.25,2.25,0,0,1,12.75,15H2.25A2.25,2.25,0,0,1,0,12.75V2.25A2.25,2.25,0,0,1,2.25,0H6a.76.76,0,0,1,.75.75A.76.76,0,0,1,6,1.5ZM9.75.75A.76.76,0,0,1,10.5,0h3.75A.76.76,0,0,1,15,.75V4.5a.75.75,0,0,1-1.5,0V2.56L9.16,6.91A.76.76,0,0,1,8.09,5.84L12.44,1.5H10.5A.76.76,0,0,1,9.75.75Z"/></svg>