<svg viewBox="0 0 16 16" xmlns="http://www.w3.org/2000/svg">
    <path d="M0.666667 0.666626C0.489856 0.666626 0.320286 0.736864 0.195262 0.861888C0.0702379 0.986912 0 1.15648 0 1.33329C0 1.5101 0.0702379 1.67967 0.195262 1.8047C0.320286 1.92972 0.489856 1.99996 0.666667 1.99996H1.85333C1.95024 2.00013 2.04464 2.03072 2.12323 2.08742C2.20181 2.14411 2.26061 2.22405 2.29133 2.31596L4.48933 8.91129C4.58733 9.20463 4.59933 9.51929 4.52467 9.81929L4.344 10.544C4.078 11.6066 4.90533 12.6666 6 12.6666H14C14.1768 12.6666 14.3464 12.5964 14.4714 12.4714C14.5964 12.3463 14.6667 12.1768 14.6667 12C14.6667 11.8231 14.5964 11.6536 14.4714 11.5286C14.3464 11.4035 14.1768 11.3333 14 11.3333H6C5.74 11.3333 5.57333 11.12 5.63667 10.8686L5.77333 10.3233C5.79636 10.2311 5.84953 10.1491 5.92441 10.0906C5.9993 10.032 6.0916 10.0001 6.18667 9.99996H13.3333C13.4734 10.0001 13.61 9.95617 13.7237 9.87432C13.8374 9.79246 13.9224 9.67687 13.9667 9.54396L15.7433 4.21063C15.7767 4.1104 15.7858 4.00368 15.7698 3.89926C15.7539 3.79484 15.7133 3.6957 15.6516 3.61002C15.5898 3.52434 15.5085 3.45457 15.4145 3.40646C15.3204 3.35834 15.2163 3.33327 15.1107 3.33329H4.37C4.27298 3.33326 4.17843 3.30274 4.09971 3.24603C4.02099 3.18932 3.96209 3.10931 3.93133 3.01729L3.29933 1.12263C3.2551 0.989822 3.17019 0.87431 3.05663 0.792464C2.94308 0.710619 2.80664 0.666592 2.66667 0.666626H0.666667ZM5.33333 13.3333C4.97971 13.3333 4.64057 13.4738 4.39052 13.7238C4.14048 13.9739 4 14.313 4 14.6666C4 15.0202 4.14048 15.3594 4.39052 15.6094C4.64057 15.8595 4.97971 16 5.33333 16C5.68696 16 6.02609 15.8595 6.27614 15.6094C6.52619 15.3594 6.66667 15.0202 6.66667 14.6666C6.66667 14.313 6.52619 13.9739 6.27614 13.7238C6.02609 13.4738 5.68696 13.3333 5.33333 13.3333ZM13.3333 13.3333C12.9797 13.3333 12.6406 13.4738 12.3905 13.7238C12.1405 13.9739 12 14.313 12 14.6666C12 15.0202 12.1405 15.3594 12.3905 15.6094C12.6406 15.8595 12.9797 16 13.3333 16C13.687 16 14.0261 15.8595 14.2761 15.6094C14.5262 15.3594 14.6667 15.0202 14.6667 14.6666C14.6667 14.313 14.5262 13.9739 14.2761 13.7238C14.0261 13.4738 13.687 13.3333 13.3333 13.3333Z" />
</svg>
