<svg id="Layer_1" data-name="Layer 1" xmlns="http://www.w3.org/2000/svg" viewBox="0 0 18 18">

    <path class="cls-1"
        d="M8.86,2.8a1.49,1.49,0,0,0-1.47-.87A3.13,3.13,0,0,0,5.3,3c-.62.75-.85,1.91-.37,3.66a19.17,19.17,0,0,0,2.2,5.18,7.13,7.13,0,0,0,3.4,3.11,2.91,2.91,0,0,0,2.7-.21,3.26,3.26,0,0,0,1.15-1.5,1.48,1.48,0,0,0-.19-1.39l-1-1.39a1.77,1.77,0,0,0-2-.68l-1.32.41a.2.2,0,0,1-.13,0,.19.19,0,0,1-.11-.07A6.08,6.08,0,0,1,8.27,7.45a.06.06,0,0,1,0-.07,5.59,5.59,0,0,1,.86-1,1.87,1.87,0,0,0,.41-2.17L8.86,2.8Z" />
</svg>