<svg viewBox="0 0 20 20" xmlns="http://www.w3.org/2000/svg">
    <path d="M13.0417 16.3378C12.2578 16.3378 11.625 15.5911 11.625 14.6667C11.625 13.7511 12.2578 13.0044 13.0417 13.0044C13.8256 13.0044 14.4583 13.7511 14.4583 14.6667C14.4583 15.5911 13.8256 16.3378 13.0417 16.3378ZM9.50001 9.33333C8.3289 9.33333 7.37501 8.58667 7.37501 7.67111C7.37501 6.74667 8.3289 6 9.50001 6C10.6711 6 11.625 6.74667 11.625 7.67111C11.625 8.58667 10.6711 9.33333 9.50001 9.33333ZM5.95834 16.3378C5.17445 16.3378 4.54168 15.5911 4.54168 14.6667C4.54168 13.7511 5.17445 13.0044 5.95834 13.0044C6.74223 13.0044 7.37501 13.7511 7.37501 14.6667C7.37501 15.5911 6.74223 16.3378 5.95834 16.3378ZM9.50001 6.66667C9.88723 6.66667 10.2083 6.96889 10.2083 7.33333C10.2083 7.69778 9.88723 8 9.50001 8C9.11278 8 8.79167 7.69778 8.79167 7.33333C8.79167 6.96889 9.11278 6.66667 9.50001 6.66667ZM15.875 10C15.5728 10 15.28 10.0622 15.0156 10.1778C14.5622 9.63556 13.9483 9.17333 13.2117 8.81778C13.75 8.10667 14.0711 7.24444 14.0711 6.31111V6.25778C15.1006 6.05333 15.875 5.19111 15.875 4.15111C15.875 2.96889 14.8456 2 13.5894 2C12.9378 2 12.3333 2.25778 11.9367 2.66667C11.2081 2.23128 10.363 2.00007 9.50001 2.00007C8.63702 2.00007 7.79186 2.23128 7.06334 2.66667C6.66667 2.25778 6.06223 2 5.41056 2C4.15445 2 3.12501 2.96889 3.12501 4.15111C3.12501 5.18222 3.89945 6.04444 4.91945 6.25778V6.31111C4.91945 7.24444 5.25001 8.11556 5.7789 8.81778C5.05168 9.17333 4.43779 9.63556 3.98445 10.1778C3.6617 10.0409 3.30763 9.98251 2.95467 10.0079C2.60171 10.0332 2.26115 10.1415 1.96418 10.3228C1.66721 10.5041 1.42333 10.7527 1.25489 11.0457C1.08644 11.3387 0.998803 11.6668 1.00001 12C1.00001 13.1111 1.94446 14 3.12501 14H3.18168C3.1439 14.2133 3.12501 14.4444 3.12501 14.6667C3.12501 16.5067 4.39057 18 5.95834 18C6.91223 18 7.75278 17.44 8.27223 16.5867C8.6689 16.64 9.07501 16.6667 9.50001 16.6667C9.92501 16.6667 10.3311 16.64 10.7278 16.5867C11.2472 17.44 12.0878 18 13.0417 18C14.6094 18 15.875 16.5067 15.875 14.6667C15.875 14.4444 15.8561 14.2133 15.8183 14H15.875C17.0556 14 18 13.1111 18 12C18 10.8889 17.0556 10 15.875 10Z" />
</svg>
