<svg width="14" height="14" viewBox="0 0 14 14" fill="none" xmlns="http://www.w3.org/2000/svg">
<g clip-path="url(#clip0_2335_1372)">
<path d="M11.3308 1.6071L11.3308 1.6071C12.2257 1.5286 13.0589 2.1109 13.2392 2.961L13.2392 2.9611C13.4322 3.87403 12.8279 4.74232 11.9134 4.9535L11.9134 10.7133C11.9134 12.127 10.7436 13.275 9.3121 13.275C7.88073 13.275 6.71084 12.1297 6.71084 10.7133L6.71084 4.68266C6.71084 3.72203 5.92365 2.93791 4.9543 2.93791C3.98496 2.93791 3.19776 3.72205 3.19776 4.68266L3.19776 11.6534L4.11579 10.7841L4.11845 10.7816L4.11848 10.7817C4.19784 10.7101 4.30166 10.6713 4.40822 10.6713C4.51479 10.6713 4.6186 10.7101 4.69797 10.7817L4.69936 10.7829L4.69935 10.7829C4.86894 10.9397 4.87192 11.2008 4.70898 11.3636L4.70625 11.3664L4.70622 11.3663L3.07217 12.9172C3.07214 12.9172 3.07212 12.9172 3.07209 12.9172L3.07205 12.9173L2.96879 12.8085C2.94359 12.8324 2.91366 12.8515 2.88071 12.8644C2.84777 12.8774 2.81244 12.8841 2.77677 12.8841C2.7411 12.8841 2.70578 12.8774 2.67283 12.8644C2.63988 12.8515 2.60995 12.8324 2.58476 12.8085L11.3308 1.6071ZM11.3308 1.6071C10.4095 1.68836 9.70684 2.42254 9.70684 3.30231C9.70684 4.09753 10.2817 4.77015 11.0686 4.95327L11.3308 1.6071ZM12.4277 3.30231C12.4277 3.78344 12.0149 4.18629 11.4883 4.18629C10.9617 4.18629 10.5488 3.78346 10.5488 3.30231C10.5488 2.82117 10.9617 2.41834 11.4883 2.41834C12.0148 2.41834 12.4277 2.82117 12.4277 3.30231Z" fill="#D22026" stroke="#D22026" stroke-width="0.3"/>
</g>
<defs>
<clipPath id="clip0_2335_1372">
<rect width="14" height="14" fill="white" transform="translate(0 14) rotate(-90)"/>
</clipPath>
</defs>
</svg>
