<svg viewBox="0 0 16 16" fill="none" xmlns="http://www.w3.org/2000/svg">
<g clip-path="url(#clip0_4229_1159)">
<path d="M15.9999 0.46875C15.9999 0.209839 15.7899 0 15.5311 0H0.46875C0.209839 0 0 0.209839 0 0.46875V15.5304C0 15.7893 0.209839 15.9991 0.46875 15.9991H13.1875C13.4463 15.9991 13.6562 15.7893 13.6562 15.5304V14.1561C13.6562 13.8972 13.4463 13.6874 13.1875 13.6874C12.9286 13.6874 12.7188 13.8972 12.7188 14.1561V15.0616H0.9375V12.2238H5.65637C5.91528 12.2238 6.12512 12.0139 6.12512 11.755C6.12512 11.4961 5.91528 11.2863 5.65637 11.2863H0.9375V0.9375H8.37341V5.56226C8.37341 5.82117 8.58337 6.03101 8.84216 6.03101C9.10107 6.03101 9.31091 5.82117 9.31091 5.56226V0.9375H15.0624L15.0625 9.49963H9.37512V8.37488C9.37512 8.11597 9.16516 7.90613 8.90637 7.90613C8.64746 7.90613 8.43762 8.11597 8.43762 8.37488V9.96838C8.43762 10.2273 8.64746 10.4371 8.90637 10.4371H12.781V11.343C12.781 11.6018 12.991 11.8118 13.2498 11.8118C13.5087 11.8118 13.7185 11.6018 13.7185 11.343V10.4371H15.5312C15.6555 10.4371 15.7748 10.3877 15.8627 10.2998C15.9506 10.2119 16 10.0927 16 9.96838L15.9999 0.46875Z" fill="#E2CDA8"/>
</g>
<defs>
<clipPath id="clip0_4229_1159">
<rect width="16" height="16" fill="white"/>
</clipPath>
</defs>
</svg>
