<svg viewBox="0 0 314 331" fill="none" xmlns="http://www.w3.org/2000/svg">
    <g opacity="0.4">
        <path d="M232.065 27.66L250.747 46.8703L175.484 122.377L156.267 103.701L165.876 94.3622L146.926 75.152L136.517 85.8243C124.134 100.552 131.357 115.974 136.517 121.844L156.267 141.321L135.984 161.598C125.095 176.326 130.913 190.324 135.183 195.483L146.927 207.489L165.609 188.546L156.535 179.207L175.217 160.531L250.747 236.038L232.065 255.248L222.457 245.376L203.507 264.319L212.048 272.59C227.207 287.745 243.63 280.506 249.946 274.992L269.963 255.248L289.446 274.725C306.741 287.318 321.028 279.972 326.01 274.725L336.152 264.319L317.203 245.643L307.595 254.714L288.913 236.038L364.443 159.997L383.659 179.207L374.051 188.813L393 207.756L404.209 196.283C415.953 179.848 408.213 165.6 402.875 160.531L383.926 141.321L404.209 120.509C415.953 103.861 407.679 89.2039 402.074 83.9567L393 75.152L374.051 94.0954L383.392 103.434L364.71 122.377L288.913 46.8703L307.862 27.66L317.47 37.532L336.419 18.3217L326.01 8.18299C310.851 -3.98349 296.563 2.22427 291.315 6.84895L269.963 27.66L248.612 6.84895C232.599 -4.46374 218.631 3.20257 213.649 8.44981L203.507 18.0549L222.724 37.2651L232.065 27.66Z" stroke="white"/>
        <path d="M269.884 56.4922L185.17 140.873L270.15 226.588L354.864 141.14L269.884 56.4922Z" stroke="white"/>
    </g>
    <g opacity="0.4">
        <path d="M103.385 239.174L122.067 258.384L46.8041 333.891L27.5876 315.214L37.196 305.876L18.2468 286.666L7.8377 297.338C-4.54603 312.066 2.67781 327.487 7.8377 333.357L27.5876 352.834L7.3044 373.112C-3.58474 387.84 2.23348 401.838 6.50373 406.996L18.2469 419.003L36.9293 400.059L27.855 390.721L46.5373 372.044L122.067 447.551L103.385 466.762L93.777 456.89L74.8278 475.833L83.3683 484.104C98.5277 499.259 114.95 492.019 121.267 486.505L141.284 466.762L160.767 486.239C178.061 498.832 192.349 491.486 197.331 486.239L207.473 475.833L188.523 457.156L178.915 466.228L160.233 447.551L235.763 371.511L254.979 390.721L245.371 400.326L264.32 419.27L275.53 407.797C287.273 391.361 279.533 377.114 274.195 372.044L255.246 352.834L275.53 332.023C287.273 315.374 278.999 300.718 273.395 295.47L264.32 286.666L245.371 305.609L254.712 314.947L236.03 333.891L160.233 258.384L179.182 239.174L188.79 249.046L207.739 229.835L197.331 219.697C182.171 207.53 167.884 213.738 162.635 218.363L141.284 239.174L119.932 218.363C103.919 207.05 89.9516 214.716 84.9696 219.963L74.8278 229.569L94.0439 248.779L103.385 239.174Z" stroke="white"/>
        <path d="M141.204 268.006L56.4902 352.386L141.47 438.102L226.184 352.653L141.204 268.006Z" stroke="white"/>
    </g>
</svg>
