<svg width="22" height="22" viewBox="0 0 22 22" fill="none" xmlns="http://www.w3.org/2000/svg">
    <path d="M1.08947 14.9633C1.08947 14.5586 1.42673 14.2888 1.764 14.2888C2.16872 14.2888 2.43853 14.6261 2.43853 14.9633L2.30363 19.6851L8.37443 13.6143C8.64424 13.3444 9.04896 13.3444 9.31877 13.6143C9.58859 13.8841 9.58859 14.2888 9.31877 14.5586L3.24797 20.6294L7.96971 20.4945C8.37443 20.4945 8.64424 20.7643 8.64424 21.169C8.64424 21.5738 8.37443 21.8436 7.96971 21.8436L1.83146 21.9785C1.56164 21.9785 1.35928 21.8436 1.15692 21.7087C0.954561 21.5063 0.887106 21.2365 0.887106 21.0341L1.08947 14.9633ZM19.7066 2.34955L14.9849 2.48446C14.5801 2.48446 14.3103 2.21465 14.3103 1.80993C14.3103 1.40521 14.5801 1.1354 14.9849 1.1354L21.0557 1.00049C21.3255 1.00049 21.5953 1.06794 21.7302 1.2703C21.8651 1.47266 22 1.74248 22 1.94484L21.8651 8.08309C21.8651 8.42035 21.5278 8.75762 21.1906 8.75762C20.7858 8.75762 20.516 8.42035 20.516 8.08309L20.6509 3.36135L14.5801 9.43215C14.4452 9.56706 14.2429 9.63452 14.108 9.63452C13.9731 9.63452 13.7707 9.56706 13.6358 9.43215C13.366 9.16234 13.366 8.75762 13.6358 8.48781L19.7066 2.34955Z" fill="#D22026"/>
</svg>
