<svg id="Layer_1" data-name="Layer 1" xmlns="http://www.w3.org/2000/svg" viewBox="0 0 12 14"><path d="M6,14a24.53,24.53,0,0,1-3-2.75C1.63,9.77,0,7.56,0,5.45a5.11,5.11,0,0,1,1-3A6,6,0,0,1,3.7.41,6.61,6.61,0,0,1,7.17.1a6.17,6.17,0,0,1,3.07,1.5,5.33,5.33,0,0,1,1.31,1.76A5,5,0,0,1,12,5.45c0,2.11-1.63,4.32-3,5.8A24.53,24.53,0,0,1,6,14ZM6,3.11a2.71,2.71,0,0,0-1.82.69,2.22,2.22,0,0,0-.75,1.65A2.25,2.25,0,0,0,4.18,7.1a2.78,2.78,0,0,0,3.64,0,2.25,2.25,0,0,0,.75-1.65A2.22,2.22,0,0,0,7.82,3.8,2.71,2.71,0,0,0,6,3.11Z"/></svg>