<svg viewBox="0 0 16 16" xmlns="http://www.w3.org/2000/svg">
<path d="M16 2.79012V13.846C15.9991 13.9122 15.9827 13.9772 15.9521 14.036C15.9216 14.0948 15.8778 14.1456 15.8241 14.1844C15.7704 14.2232 15.7085 14.2489 15.6431 14.2595C15.5777 14.2701 15.5108 14.2652 15.4476 14.2454C13.4395 13.5935 11.2566 13.7483 9.36054 14.6771C9.32205 14.6968 9.27917 14.7065 9.23592 14.7051C9.19268 14.7037 9.15049 14.6913 9.11335 14.6692C9.0762 14.647 9.04531 14.6157 9.02359 14.5783C9.00187 14.5409 8.99002 14.4985 8.98918 14.4553V3.24306C8.98875 3.186 9.00662 3.1303 9.04017 3.08415C9.31067 2.71316 9.65481 2.40198 10.0511 2.17007C10.4473 1.93816 10.8872 1.79052 11.3431 1.73637C12.8494 1.52525 14.3847 1.75642 15.762 2.40176C15.834 2.43788 15.8944 2.49338 15.9364 2.56201C15.9784 2.63063 16.0005 2.70964 16 2.79012ZM5.36055 1.73637C3.85561 1.52609 2.32198 1.75724 0.945866 2.40176C0.873154 2.43729 0.811891 2.49253 0.769068 2.5612C0.726244 2.62987 0.703585 2.70919 0.703675 2.79012V13.846C0.704596 13.9122 0.720979 13.9772 0.751518 14.036C0.782056 14.0948 0.825905 14.1456 0.879564 14.1844C0.933224 14.2232 0.995209 14.2489 1.06057 14.2595C1.12594 14.2701 1.19288 14.2652 1.25604 14.2454C3.26388 13.5936 5.44654 13.7484 7.34228 14.6771C7.3808 14.697 7.42377 14.7068 7.46714 14.7055C7.5105 14.7043 7.55282 14.6919 7.59009 14.6697C7.62736 14.6475 7.65835 14.6162 7.68011 14.5786C7.70188 14.5411 7.71371 14.4986 7.71449 14.4553V3.24306C7.71492 3.186 7.69705 3.1303 7.6635 3.08415C7.393 2.71316 7.04886 2.40198 6.6526 2.17007C6.25634 1.93816 5.81648 1.79052 5.36055 1.73637Z" />
</svg>
