<svg viewBox="0 0 16 16" xmlns="http://www.w3.org/2000/svg">
    <path d="M10.4333 13.0702C9.80621 13.0702 9.29999 12.4729 9.29999 11.7333C9.29999 11.0009 9.80621 10.4035 10.4333 10.4035C11.0604 10.4035 11.5667 11.0009 11.5667 11.7333C11.5667 12.4729 11.0604 13.0702 10.4333 13.0702ZM7.59999 7.46664C6.6631 7.46664 5.89999 6.86931 5.89999 6.13686C5.89999 5.39731 6.6631 4.79998 7.59999 4.79998C8.53688 4.79998 9.29999 5.39731 9.29999 6.13686C9.29999 6.86931 8.53688 7.46664 7.59999 7.46664ZM4.76666 13.0702C4.13955 13.0702 3.63333 12.4729 3.63333 11.7333C3.63333 11.0009 4.13955 10.4035 4.76666 10.4035C5.39377 10.4035 5.89999 11.0009 5.89999 11.7333C5.89999 12.4729 5.39377 13.0702 4.76666 13.0702ZM7.59999 5.33331C7.90977 5.33331 8.16666 5.57509 8.16666 5.86664C8.16666 6.1582 7.90977 6.39998 7.59999 6.39998C7.29022 6.39998 7.03333 6.1582 7.03333 5.86664C7.03333 5.57509 7.29022 5.33331 7.59999 5.33331ZM12.7 7.99998C12.4582 7.99998 12.224 8.04975 12.0124 8.1422C11.6498 7.70842 11.1587 7.33864 10.5693 7.0542C11 6.48531 11.2569 5.79553 11.2569 5.04886V5.0062C12.0804 4.84264 12.7 4.15286 12.7 3.32086C12.7 2.37509 11.8764 1.59998 10.8715 1.59998C10.3502 1.59998 9.86666 1.8062 9.54932 2.13331C8.96651 1.785 8.29038 1.60003 7.59999 1.60003C6.9096 1.60003 6.23348 1.785 5.65066 2.13331C5.33333 1.8062 4.84977 1.59998 4.32844 1.59998C3.32355 1.59998 2.5 2.37509 2.5 3.32086C2.5 4.14575 3.11955 4.83553 3.93555 5.0062V5.04886C3.93555 5.79553 4.2 6.49242 4.62311 7.0542C4.04133 7.33864 3.55022 7.70842 3.18755 8.1422C2.92935 8.03273 2.64609 7.98599 2.36373 8.00626C2.08136 8.02652 1.80891 8.11316 1.57133 8.25821C1.33376 8.40327 1.13866 8.60211 1.0039 8.83653C0.869137 9.07095 0.79903 9.33345 0.799998 9.59998C0.799998 10.4889 1.55555 11.2 2.5 11.2H2.54533C2.51511 11.3706 2.5 11.5555 2.5 11.7333C2.5 13.2053 3.51244 14.4 4.76666 14.4C5.52977 14.4 6.20222 13.952 6.61777 13.2693C6.9351 13.312 7.25999 13.3333 7.59999 13.3333C7.93999 13.3333 8.26488 13.312 8.58221 13.2693C8.99777 13.952 9.67021 14.4 10.4333 14.4C11.6875 14.4 12.7 13.2053 12.7 11.7333C12.7 11.5555 12.6849 11.3706 12.6547 11.2H12.7C13.6444 11.2 14.4 10.4889 14.4 9.59998C14.4 8.71109 13.6444 7.99998 12.7 7.99998Z" />
</svg>
