<svg id="Layer_1" data-name="Layer 1" xmlns="http://www.w3.org/2000/svg" xmlns:xlink="http://www.w3.org/1999/xlink" viewBox="0 0 16 16"><defs><style>.cls-1{fill:none;}.cls-2{clip-path:url(#clip-path);}</style><clipPath id="clip-path"><rect class="cls-1" width="16" height="16"/></clipPath></defs><g class="cls-2"><path d="M11.44,1.88a.13.13,0,0,0-.13-.13H4.69a.13.13,0,0,0-.13.13V4.19h6.88Zm1.87,3.31H2.69A1.25,1.25,0,0,0,1.44,6.44v5.12a.5.5,0,0,0,.5.5H4.56v2.07a.13.13,0,0,0,.13.12h6.62a.13.13,0,0,0,.13-.12V12.06h2.62a.5.5,0,0,0,.5-.5V6.44A1.25,1.25,0,0,0,13.31,5.19Zm-2.94,8H5.62V8.88h4.75Zm2.57-5.63a.13.13,0,0,1-.13.13h-.62a.13.13,0,0,1-.13-.13V6.94a.13.13,0,0,1,.13-.13h.62a.13.13,0,0,1,.13.13Z"/></g></svg>