<svg id="Layer_1" data-name="Layer 1" xmlns="http://www.w3.org/2000/svg" viewBox="0 0 17 16"><path d="M9.08,11.51,5.67,9.65a2.28,2.28,0,0,1-1.19.64,2.34,2.34,0,0,1-2.39-1A2.28,2.28,0,0,1,1.7,8a2.33,2.33,0,0,1,.39-1.3,2.36,2.36,0,0,1,1-.86,2.4,2.4,0,0,1,1.35-.13,2.34,2.34,0,0,1,1.19.63L9.08,4.48a2.32,2.32,0,0,1,.24-1.61,2.29,2.29,0,0,1,1.23-1.06,2.34,2.34,0,0,1,1.63,0,2.39,2.39,0,0,1,1.23,1.07,2.33,2.33,0,0,1-.65,3,2.36,2.36,0,0,1-1.56.47,2.32,2.32,0,0,1-1.48-.68L6.31,7.51a2.27,2.27,0,0,1,0,1l3.41,1.86a2.34,2.34,0,0,1,3.69,2.78,2.36,2.36,0,0,1-2.86,1.07,2.35,2.35,0,0,1-1.23-1.07A2.31,2.31,0,0,1,9.08,11.51Z"/></svg>