<svg id="Layer_1" data-name="Layer 1" xmlns="http://www.w3.org/2000/svg" viewBox="0 0 30 30"><path d="M24.78,8.18A11.42,11.42,0,0,0,9.24,4.68a11.13,11.13,0,0,0-3.5,15.4L6,20.5,4.9,24.7l4.2-1.12.42.28a12.16,12.16,0,0,0,5.74,1.54,11.5,11.5,0,0,0,6-1.68A11.42,11.42,0,0,0,24.78,8.18ZM21.84,19A3.18,3.18,0,0,1,19.6,20.5c-.56,0-1.26.28-4.06-.84a14.32,14.32,0,0,1-5.74-5,6.42,6.42,0,0,1-1.4-3.5,3.91,3.91,0,0,1,1.12-2.8,1.21,1.21,0,0,1,.84-.42h.7c.28,0,.56,0,.7.56s1,2.38,1,2.52l.17.59a.89.89,0,0,1-.31.67c-.14.14-.3.34-.44.48a.71.71,0,0,0-.26.78,16.12,16.12,0,0,0,2,2.38,10.65,10.65,0,0,0,2.66,1.68c.28.14.56.14.7-.14a9.06,9.06,0,0,1,1.12-1.26c.28-.28.42-.28.7-.14l2.24,1.12a3.06,3.06,0,0,1,.7.42A1.66,1.66,0,0,1,21.84,19Z"/></svg>