<svg id="Layer_1" data-name="Layer 1" xmlns="http://www.w3.org/2000/svg" viewBox="0 0 230 230"><defs><style>.cls-1{fill:#b5c5e0;opacity:0.7;isolation:isolate;}</style></defs><path class="cls-1" d="M59.07,42.29V67.87a4,4,0,0,0,4.11,3.93H115v-1H63.18a3,3,0,0,1-3.08-2.95V42.29a3,3,0,0,1,3.08-2.95H115v-1H63.18A4,4,0,0,0,59.07,42.29Z"/><path class="cls-1" d="M49.84,38.36H0v1H49.84a3,3,0,0,1,3.08,2.95V67.87a3,3,0,0,1-3.08,2.95H0v1H49.84A4,4,0,0,0,54,67.87V42.29A4,4,0,0,0,49.84,38.36Z"/><path class="cls-1" d="M2.66,3.93V29.51a4,4,0,0,0,4.1,3.93H108.31a4,4,0,0,0,4.11-3.93V3.93A4,4,0,0,0,108.31,0H6.76A4,4,0,0,0,2.66,3.93ZM6.76,1H108.31a3,3,0,0,1,3.08,3V29.51a3,3,0,0,1-3.08,2.95H6.76a3,3,0,0,1-3.08-2.95V3.93A3,3,0,0,1,6.76,1Z"/><path class="cls-1" d="M174.07,42.29V67.87a4,4,0,0,0,4.11,3.93H230v-1H178.18a3,3,0,0,1-3.08-2.95V42.29a3,3,0,0,1,3.08-2.95H230v-1H178.18A4,4,0,0,0,174.07,42.29Z"/><path class="cls-1" d="M164.84,38.36H115v1h49.84a3,3,0,0,1,3.08,2.95V67.87a3,3,0,0,1-3.08,2.95H115v1h49.84A4,4,0,0,0,169,67.87V42.29A4,4,0,0,0,164.84,38.36Z"/><path class="cls-1" d="M117.66,3.93V29.51a4,4,0,0,0,4.1,3.93H223.31a4,4,0,0,0,4.11-3.93V3.93A4,4,0,0,0,223.31,0H121.76A4,4,0,0,0,117.66,3.93ZM121.76,1H223.31a3,3,0,0,1,3.08,3V29.51a3,3,0,0,1-3.08,2.95H121.76a3,3,0,0,1-3.08-2.95V3.93A3,3,0,0,1,121.76,1Z"/><path class="cls-1" d="M59.07,118.89v25.57a4,4,0,0,0,4.11,3.94H115v-1H63.18a3,3,0,0,1-3.08-2.95V118.89a3,3,0,0,1,3.08-3H115v-1H63.18A4,4,0,0,0,59.07,118.89Z"/><path class="cls-1" d="M49.84,115H0v1H49.84a3,3,0,0,1,3.08,3v25.57a3,3,0,0,1-3.08,2.95H0v1H49.84A4,4,0,0,0,54,144.46V118.89A4,4,0,0,0,49.84,115Z"/><path class="cls-1" d="M2.66,80.53V106.1A4,4,0,0,0,6.76,110H108.31a4,4,0,0,0,4.11-3.94V80.53a4,4,0,0,0-4.11-3.94H6.76A4,4,0,0,0,2.66,80.53Zm4.1-3H108.31a3,3,0,0,1,3.08,3V106.1a3,3,0,0,1-3.08,3H6.76a3,3,0,0,1-3.08-3V80.53a3,3,0,0,1,3.08-3Z"/><path class="cls-1" d="M174.07,118.89v25.57a4,4,0,0,0,4.11,3.94H230v-1H178.18a3,3,0,0,1-3.08-2.95V118.89a3,3,0,0,1,3.08-3H230v-1H178.18A4,4,0,0,0,174.07,118.89Z"/><path class="cls-1" d="M164.84,115H115v1h49.84a3,3,0,0,1,3.08,3v25.57a3,3,0,0,1-3.08,2.95H115v1h49.84a4,4,0,0,0,4.11-3.94V118.89A4,4,0,0,0,164.84,115Z"/><path class="cls-1" d="M117.66,80.53V106.1a4,4,0,0,0,4.1,3.94H223.31a4,4,0,0,0,4.11-3.94V80.53a4,4,0,0,0-4.11-3.94H121.76A4,4,0,0,0,117.66,80.53Zm4.1-3H223.31a3,3,0,0,1,3.08,3V106.1a3,3,0,0,1-3.08,3H121.76a3,3,0,0,1-3.08-3V80.53a3,3,0,0,1,3.08-3Z"/><path class="cls-1" d="M59.07,195.49v25.58A4,4,0,0,0,63.18,225H115v-1H63.18a3,3,0,0,1-3.08-3V195.49a3,3,0,0,1,3.08-3H115v-1H63.18A4,4,0,0,0,59.07,195.49Z"/><path class="cls-1" d="M49.84,191.56H0v1H49.84a3,3,0,0,1,3.08,3v25.58a3,3,0,0,1-3.08,3H0v1H49.84A4,4,0,0,0,54,221.07V195.49A4,4,0,0,0,49.84,191.56Z"/><path class="cls-1" d="M2.66,157.13v25.58a4,4,0,0,0,4.1,3.93H108.31a4,4,0,0,0,4.11-3.93V157.13a4,4,0,0,0-4.11-3.93H6.76A4,4,0,0,0,2.66,157.13Zm4.1-2.95H108.31a3,3,0,0,1,3.08,2.95v25.58a3,3,0,0,1-3.08,2.95H6.76a3,3,0,0,1-3.08-2.95V157.13a3,3,0,0,1,3.08-2.95Z"/><path class="cls-1" d="M174.07,195.49v25.58a4,4,0,0,0,4.11,3.93H230v-1H178.18a3,3,0,0,1-3.08-3V195.49a3,3,0,0,1,3.08-3H230v-1H178.18A4,4,0,0,0,174.07,195.49Z"/><path class="cls-1" d="M164.84,191.56H115v1h49.84a3,3,0,0,1,3.08,3v25.58a3,3,0,0,1-3.08,3H115v1h49.84a4,4,0,0,0,4.11-3.93V195.49A4,4,0,0,0,164.84,191.56Z"/><path class="cls-1" d="M117.66,157.13v25.58a4,4,0,0,0,4.1,3.93H223.31a4,4,0,0,0,4.11-3.93V157.13a4,4,0,0,0-4.11-3.93H121.76A4,4,0,0,0,117.66,157.13Zm4.1-2.95H223.31a3,3,0,0,1,3.08,2.95v25.58a3,3,0,0,1-3.08,2.95H121.76a3,3,0,0,1-3.08-2.95V157.13a3,3,0,0,1,3.08-2.95Z"/></svg>