<svg width="92" height="92" viewBox="0 0 92 92" fill="none" xmlns="http://www.w3.org/2000/svg">
<path d="M92 46C92 71.4051 71.4051 92 46 92C20.5949 92 0 71.4051 0 46C0 20.5949 20.5949 0 46 0C71.4051 0 92 20.5949 92 46Z" fill="white"/>
<path d="M46.25 31C39.4955 31 34 36.4422 34 43.1318C34 47.9955 40.1271 55.6118 43.7808 59.7204C44.0913 60.0682 44.4717 60.3466 44.8973 60.5371C45.3228 60.7277 45.7838 60.8262 46.25 60.8262C46.7162 60.8262 47.1772 60.7277 47.6027 60.5371C48.0283 60.3466 48.4087 60.0682 48.7192 59.7204C52.3718 55.614 58.5 47.9966 58.5 43.1318C58.5 36.4422 53.0045 31 46.25 31ZM46.25 37.8728C49.1868 37.8728 51.5761 40.2322 51.5761 43.1318C51.5761 46.0313 49.1868 48.3907 46.25 48.3907C43.3132 48.3907 40.9239 46.0313 40.9239 43.1318C40.9239 40.2322 43.3132 37.8728 46.25 37.8728Z" fill="#D22026"/>
</svg>
