<svg width="192" height="31" viewBox="0 0 192 31" fill="none" xmlns="http://www.w3.org/2000/svg">
<path d="M85.8562 9.10028L89.8629 6.04688H76.4492V24.3374H89.8629V21.284H80.2817V16.614H88.4693V13.5606H80.2817V9.10028H85.8562Z" fill="white"/>
<path d="M66.3099 13.1715H61.6645V9.10028H69.0972L73.1038 6.04688H57.832V24.3374H65.8163C70.2876 24.3374 72.8716 22.2419 72.8716 18.5898C72.8716 15.0873 70.5489 13.1715 66.3099 13.1715ZM65.6712 21.284H61.6645V16.2249H65.6712C68.11 16.2249 69.2423 17.0631 69.2423 18.7694C69.2423 20.4757 68.0229 21.284 65.6712 21.284Z" fill="white"/>
<path d="M100.717 6.04688H93.4297V24.3374H97.2622V19.1585H100.746C105.392 19.1585 108.295 16.644 108.295 12.6027C108.295 8.56144 105.392 6.04688 100.717 6.04688ZM100.63 16.1051H97.2331V9.10028H100.63C103.098 9.10028 104.434 10.3576 104.434 12.6027C104.434 14.8479 103.098 16.1051 100.63 16.1051Z" fill="white"/>
<path d="M51.2763 20.3851C50.2601 20.9539 49.1278 21.2533 47.9664 21.2533C44.5114 21.2533 42.0145 18.7088 42.0145 15.2063C42.0145 11.7039 44.5114 9.1594 47.9664 9.1594C49.2149 9.12946 50.4343 9.54855 51.4505 10.2969L54.2087 8.20147L54.0345 8.02185C52.4376 6.55502 50.2891 5.80664 47.8503 5.80664C45.2082 5.80664 42.7984 6.73464 41.0564 8.41101C39.3143 10.1473 38.3272 12.572 38.3852 15.0866C38.3562 17.6311 39.3143 20.0858 41.0564 21.8819C42.8855 23.6481 45.3243 24.636 47.8213 24.5761C50.5795 24.5761 52.9893 23.5882 54.6152 21.7921L52.1473 19.9062L51.2763 20.3851Z" fill="white"/>
<path d="M154.376 6.07681V24.3673H158.208V16.8835H166.367V24.3673H170.199V6.07681H166.367V13.5906H158.208V6.07681H154.376ZM147.785 24.3673H151.821L144.33 6.07681H140.44L132.804 24.3673H136.665L138.204 20.6852H146.334L147.785 24.3673ZM139.365 17.6318L142.327 10.2977L145.114 17.6318H139.365ZM178.793 16.9733H181.174L187.039 24.3374H191.975L184.136 14.8778L190.988 6.04688H186.604L180.913 13.8899H178.793V6.04688H174.961V24.3374H178.793V16.9733ZM120.145 13.2014V9.13021H130.162V6.07681H116.312V24.3673H124.297C128.768 24.3673 131.352 22.2718 131.352 18.6197C131.352 15.1173 129.029 13.2014 124.79 13.2014H120.145ZM120.145 21.3139V16.2548H124.152C126.591 16.2548 127.723 17.093 127.723 18.7993C127.723 20.5056 126.532 21.3438 124.152 21.3438H120.145V21.3139Z" fill="white"/>
<path d="M26.3963 5.92578C27.0931 6.85378 27.6738 7.87158 28.1673 8.94925L14.7537 19.1572L9.12109 15.5051V11.1345L14.7246 14.7567L26.3963 5.92578Z" fill="#21A038"/>
<path d="M3.39697 15.2061C3.39697 14.9965 3.39697 14.8169 3.426 14.6073L0.0290339 14.4277C0.0290339 14.6672 0 14.9366 0 15.1761C0 19.3671 1.65493 23.1689 4.32605 25.9229L6.73587 23.4383C4.67446 21.3428 3.39697 18.4391 3.39697 15.2061Z" fill="url(#paint0_linear_284_10836)"/>
<path d="M14.7223 3.53173C14.9255 3.53173 15.0997 3.53173 15.3029 3.56167L15.4771 0.0592322C15.2449 0.0592322 14.9836 0.0292969 14.7513 0.0292969C10.6865 0.0292969 6.99924 1.73561 4.32812 4.48966L6.73794 6.97429C8.77031 4.84888 11.6156 3.53173 14.7223 3.53173Z" fill="url(#paint1_linear_284_10836)"/>
<path d="M14.7236 26.882C14.5204 26.882 14.3462 26.882 14.143 26.8521L13.9688 30.3545C14.201 30.3545 14.4623 30.3844 14.6946 30.3844C18.7593 30.3844 22.4467 28.6781 25.1178 25.9241L22.708 23.4395C20.6756 25.5948 17.8593 26.882 14.7236 26.882Z" fill="url(#paint2_linear_284_10836)"/>
<path d="M21.1101 5.56797L23.9845 3.38269C21.4585 1.28722 18.2358 0 14.7227 0V3.50243C17.1034 3.53237 19.31 4.28075 21.1101 5.56797Z" fill="url(#paint3_linear_284_10836)"/>
<path d="M29.4666 15.2065C29.4666 14.2785 29.3795 13.3805 29.2343 12.4824L26.0696 14.9072C26.0696 14.997 26.0696 15.1167 26.0696 15.2065C26.0696 18.6491 24.6179 21.7324 22.3242 23.8578L24.6179 26.4622C27.5793 23.7082 29.4666 19.6669 29.4666 15.2065Z" fill="#21A038"/>
<path d="M14.7214 26.8812C11.3825 26.8812 8.39204 25.3844 6.33064 23.0195L3.80469 25.3844C6.50484 28.4678 10.3954 30.3836 14.7214 30.3836V26.8812Z" fill="url(#paint4_linear_284_10836)"/>
<path d="M7.14234 6.55555L4.84866 3.95117C1.85817 6.73516 0 10.7465 0 15.2069H3.39697C3.39697 11.7942 4.84866 8.68095 7.14234 6.55555Z" fill="url(#paint5_linear_284_10836)"/>
<defs>
<linearGradient id="paint0_linear_284_10836" x1="3.97466" y1="25.4968" x2="0.303403" y2="15.2372" gradientUnits="userSpaceOnUse">
<stop offset="0.1444" stop-color="#F2E913"/>
<stop offset="0.3037" stop-color="#E7E518"/>
<stop offset="0.5823" stop-color="#CADB26"/>
<stop offset="0.891" stop-color="#A3CD39"/>
</linearGradient>
<linearGradient id="paint1_linear_284_10836" x1="5.29643" y1="4.08359" x2="14.1761" y2="0.812117" gradientUnits="userSpaceOnUse">
<stop offset="0.0592" stop-color="#0FA8E0"/>
<stop offset="0.5385" stop-color="#0099F9"/>
<stop offset="0.9234" stop-color="#0291EB"/>
</linearGradient>
<linearGradient id="paint2_linear_284_10836" x1="13.7693" y1="27.3968" x2="24.3009" y2="25.0956" gradientUnits="userSpaceOnUse">
<stop offset="0.1226" stop-color="#A3CD39"/>
<stop offset="0.2846" stop-color="#86C339"/>
<stop offset="0.8693" stop-color="#21A038"/>
</linearGradient>
<linearGradient id="paint3_linear_284_10836" x1="14.0247" y1="2.24092" x2="22.804" y2="4.85975" gradientUnits="userSpaceOnUse">
<stop offset="0.0566" stop-color="#0291EB"/>
<stop offset="0.79" stop-color="#0C8ACB"/>
</linearGradient>
<linearGradient id="paint4_linear_284_10836" x1="4.66842" y1="25.9533" x2="14.1167" y2="29.3662" gradientUnits="userSpaceOnUse">
<stop offset="0.1324" stop-color="#F2E913"/>
<stop offset="0.2977" stop-color="#EBE716"/>
<stop offset="0.5306" stop-color="#D9E01F"/>
<stop offset="0.8023" stop-color="#BBD62D"/>
<stop offset="0.9829" stop-color="#A3CD39"/>
</linearGradient>
<linearGradient id="paint5_linear_284_10836" x1="2.58477" y1="15.6299" x2="6.54898" y2="5.66011" gradientUnits="userSpaceOnUse">
<stop offset="0.0698" stop-color="#A3CD39"/>
<stop offset="0.2599" stop-color="#81C55F"/>
<stop offset="0.9216" stop-color="#0FA8E0"/>
</linearGradient>
</defs>
</svg>
