<svg width="30" height="30" viewBox="0 0 30 30" fill="none" xmlns="http://www.w3.org/2000/svg">
<path d="M28.4167 9.05957C28.6094 8.44922 28.4167 8 27.4896 8H24.4219C23.6406 8 23.2813 8.38574 23.0886 8.81543C23.0886 8.81543 21.5261 12.3848 19.3177 14.6992C18.6042 15.3682 18.2761 15.583 17.8854 15.583C17.6927 15.583 17.3958 15.3682 17.3958 14.7578V9.05957C17.3958 8.32715 17.1771 8 16.5313 8H11.7083C11.2188 8 10.9271 8.3418 10.9271 8.65918C10.9271 9.35254 12.0313 9.51367 12.1458 11.4668V15.7051C12.1458 16.6328 11.9688 16.8037 11.5781 16.8037C10.5365 16.8037 8.00521 13.2197 6.50521 9.11816C6.20313 8.32227 5.90625 8 5.11979 8H2.05208C1.17708 8 1 8.38574 1 8.81543C1 9.57715 2.04167 13.3613 5.84896 18.3613C8.38542 21.7744 11.9583 23.625 15.2083 23.625C17.1615 23.625 17.4011 23.2148 17.4011 22.5068C17.4011 19.2451 17.224 18.9375 18.2031 18.9375C18.6563 18.9375 19.4375 19.1523 21.2604 20.7979C23.3438 22.751 23.6875 23.625 24.8542 23.625H27.9219C28.7969 23.625 29.2396 23.2148 28.9844 22.4043C28.4011 20.7002 24.4584 17.1943 24.2813 16.96C23.8281 16.4131 23.9584 16.1689 24.2813 15.6807C24.2865 15.6758 28.0313 10.7344 28.4167 9.05957Z" fill="white"/>
</svg>
