<svg width="30" height="30" viewBox="0 0 30 30" fill="none" xmlns="http://www.w3.org/2000/svg">
<path d="M26.0556 8.01235C22.1663 1.9998 14.2257 0.212288 8.06763 3.94982C2.07165 7.68735 0.127008 15.8124 4.01629 21.825L4.3404 22.3125L3.04397 27.1875L7.90557 25.8875L8.39173 26.2125C10.4984 27.35 12.7672 28 15.0359 28C17.4667 28 19.8975 27.35 22.0042 26.05C28.0002 22.15 29.7828 14.1874 26.0556 8.01235ZM22.6524 20.5249C22.0042 21.5 21.194 22.15 20.0596 22.3125C19.4114 22.3125 18.6011 22.6375 15.36 21.3375C12.6051 20.0374 10.3364 17.9249 8.71584 15.4874C7.74352 14.3499 7.25736 12.8874 7.09531 11.4249C7.09531 10.1249 7.58147 8.98736 8.39173 8.17485C8.71584 7.84985 9.03995 7.68735 9.36405 7.68735H10.1743C10.4984 7.68735 10.8225 7.68735 10.9846 8.33735C11.3087 9.14986 12.119 11.0999 12.119 11.2624C12.281 11.4249 12.281 11.7499 12.119 11.9124C12.281 12.2374 12.119 12.5624 11.9569 12.7249C11.7949 12.8874 11.6328 13.2124 11.4707 13.3749C11.1466 13.5374 10.9846 13.8624 11.1466 14.1874C11.7949 15.1624 12.6051 16.1374 13.4154 16.9499C14.3877 17.7624 15.36 18.4124 16.4944 18.8999C16.8185 19.0624 17.1426 19.0624 17.3047 18.7374C17.4667 18.4124 18.277 17.5999 18.6011 17.2749C18.9252 16.9499 19.0873 16.9499 19.4114 17.1124L22.0042 18.4124C22.3283 18.5749 22.6524 18.7374 22.8145 18.8999C22.9765 19.3874 22.9765 20.0374 22.6524 20.5249Z" fill="white"/>
</svg>
