<svg width="49" height="49" viewBox="0 0 49 49" fill="none" xmlns="http://www.w3.org/2000/svg">
<circle cx="24.5" cy="24.5" r="24.5" fill="#6BC859"/>
<path d="M36.0556 18.0123C32.1663 11.9998 24.2257 10.2123 18.0676 13.9498C12.0716 17.6873 10.127 25.8124 14.0163 31.825L14.3404 32.3125L13.044 37.1875L17.9056 35.8875L18.3917 36.2125C20.4984 37.35 22.7672 38 25.0359 38C27.4667 38 29.8975 37.35 32.0042 36.05C38.0002 32.15 39.7828 24.1874 36.0556 18.0123ZM32.6524 30.5249C32.0042 31.5 31.194 32.15 30.0596 32.3125C29.4114 32.3125 28.6011 32.6375 25.36 31.3375C22.6051 30.0374 20.3364 27.9249 18.7158 25.4874C17.7435 24.3499 17.2574 22.8874 17.0953 21.4249C17.0953 20.1249 17.5815 18.9874 18.3917 18.1748C18.7158 17.8498 19.0399 17.6873 19.3641 17.6873H20.1743C20.4984 17.6873 20.8225 17.6873 20.9846 18.3374C21.3087 19.1499 22.119 21.0999 22.119 21.2624C22.281 21.4249 22.281 21.7499 22.119 21.9124C22.281 22.2374 22.119 22.5624 21.9569 22.7249C21.7949 22.8874 21.6328 23.2124 21.4707 23.3749C21.1466 23.5374 20.9846 23.8624 21.1466 24.1874C21.7949 25.1624 22.6051 26.1374 23.4154 26.9499C24.3877 27.7624 25.36 28.4124 26.4944 28.8999C26.8185 29.0624 27.1426 29.0624 27.3047 28.7374C27.4667 28.4124 28.277 27.5999 28.6011 27.2749C28.9252 26.9499 29.0873 26.9499 29.4114 27.1124L32.0042 28.4124C32.3283 28.5749 32.6524 28.7374 32.8145 28.8999C32.9765 29.3874 32.9765 30.0374 32.6524 30.5249Z" fill="white"/>
</svg>
