<svg id="Layer_1" data-name="Layer 1" xmlns="http://www.w3.org/2000/svg" viewBox="0 0 129 85">
    <defs>
        <style>
            .cls-1 {
                fill: #1361DE;
                fill-rule: evenodd;
            }
        </style>
    </defs>
    <path class="cls-1"
        d="M69,.18c-.11.1-1.63.93-3.39,1.84s-4.48,2.35-6.05,3.2l-4.89,2.6C44.89,13,23.42,24.37,21.52,25.4l-2.39,1.29V30.5l2.6-1.38L44,17.31l3.51-1.87,3.29-1.75,3-1.59C56,10.91,60,8.77,64.61,6.33c1.22-.65,2.75-1.48,3.4-1.84a5.73,5.73,0,0,1,1.56-.65c.36,0,5.16,2.5,12.89,6.71,1.34.73,5.45,2.93,9.14,4.89s7.18,3.83,7.77,4.16c1.06.59,1.11.6,1.15.21v-.32s0-.49,0-1.61l-.06-1.74L95.79,13.8l-4.62-2.34V0h-4V4.35a27.33,27.33,0,0,1-.19,4.48c-.15.09-7.88-3.89-15.48-8C69.91,0,69.33-.16,69,.18ZM64.61,15.46,53.13,21.55c-1.58.84-3,1.61-3.13,1.72s-.27,3.38-.27,14.78V52.62l4.83-.06,4.84-.06v-16l2.06-.06,2.06-.06v16.2h9.89l0-20.87c0-11.48,0-20.87-.11-20.87S69.34,12.94,64.61,15.46ZM76.93,35.24V57.72h23.59V52.93c0-2.64,0-4.92,0-5s-2-.13-4.62-.16l-4.73-.06v4.91H86.71v-14c0-7.67,0-13.95.1-13.95s1,.49,2.12,1.08l2,1.09v4.54l4.78-.06,4.78-.07V25.67s-.36-.6-4.15-2.61L77.3,13C77,12.77,76.93,13.9,76.93,35.24Zm-13.17-8.3v4.58H59.51V24.59l2.07-1.11c1.14-.61,2.09-1.11,2.12-1.11S63.76,24.43,63.76,26.94ZM42.5,27,30.92,33c-.82.44-3,1.59-4.94,2.57l-3.45,1.79V57.72H32.3l0-2.29c0-1.26,0-2.41,0-2.55s1.45-.27,6.77-.27H45.9V39.19c0-7.38,0-13.49,0-13.57C46,25.24,45.39,25.46,42.5,27ZM36.14,42.4l0,5.42-1.13,0a16.28,16.28,0,0,1-1.94-.08l-.8-.1,0-4.39,0-4.4,1.84-1a17.46,17.46,0,0,1,1.9-.94S36.12,39.42,36.14,42.4Zm85,22.48a3,3,0,0,0,1.25,2.06,4.31,4.31,0,0,0,3.72-.08,3.39,3.39,0,0,0,1.19-2c0-.26-.21-.33-.9-.3s-1,.12-1.23.69c-.52,1.09-1.68,1-2.14-.23-.15-.4-.34-.49-1-.49S121.14,64.62,121.14,64.88Zm-119,3.2c-.41,0-1.06.13-1.44.2L0,68.39V76.1c0,4.24.06,7.93.13,8.19.12.44.26.48,1.6.48H3.19V78.66l1.52-.25a4.91,4.91,0,0,0,3.62-1.92,6.32,6.32,0,0,0,.3-6.29C7.69,68.6,5.06,67.74,2.13,68.08Zm23.07.22a7.61,7.61,0,0,0-4,4c-.45,1.14-.51,1.61-.51,4.37s.06,3.23.49,4.31a5.91,5.91,0,0,0,6.25,3.92,7.17,7.17,0,0,0,1.45-.26,4,4,0,0,0,0-2.39c-.11-.18-.37-.23-.74-.14a3.39,3.39,0,0,1-3.83-2.42,10.36,10.36,0,0,1,.36-7.16,3,3,0,0,1,3.06-1.77c1.24.1,1.25.09,1.46-1.51.13-1,.13-1-.55-1.18A7.44,7.44,0,0,0,25.2,68.3Zm28.46-.16-1.06.13-.06,8.26,0,8.26L54,84.73l1.5-.06,0-3.06,0-3.06.85-.08c2.42-.2,4.26-1.42,4.87-3.21a7.12,7.12,0,0,0-.1-4.64,4.84,4.84,0,0,0-2.57-2.23A17.32,17.32,0,0,0,53.66,68.14Zm12.66.28c-3.06,1.64-4.35,8.22-2.55,13,1.16,3.08,3.9,4.34,6.55,3q3.21-1.62,3.21-8.44a13.07,13.07,0,0,0-1.37-6A4,4,0,0,0,68.67,68,3.58,3.58,0,0,0,66.32,68.42Zm13.29-.13a7.51,7.51,0,0,0-3.9,3.94,14.41,14.41,0,0,0-.22,8.39,5.89,5.89,0,0,0,6.7,4.24c1.37-.22,1.46-.37,1.23-1.91L83.29,82l-1,.12a3.09,3.09,0,0,1-3.31-2c-1-2.12-.88-6.38.29-8a3.11,3.11,0,0,1,2.94-1.44l1.11.09.24-1.16c.18-.84.18-1.23,0-1.39C83.17,67.93,80.76,67.92,79.61,68.29Zm18.26-.21c-.47,0-1.07.13-1.33.19l-.48.11V84.77h3.18l.05-3.11.06-3.12,1.07-.08a5.29,5.29,0,0,0,3.91-2.14,5.22,5.22,0,0,0,.83-3.87c-.15-2.73-1.73-4.15-4.85-4.35A20.23,20.23,0,0,0,97.87,68.08Zm12.31.26c-3.2,1.5-4.58,7.4-3,12.75,1,3.24,3.83,4.69,6.65,3.37a5.57,5.57,0,0,0,2.77-3.73,24.33,24.33,0,0,0,0-8.8,7.33,7.33,0,0,0-2.32-3.42A5,5,0,0,0,110.18,68.34ZM11.83,74.05c1.09,3.24,2,6,2,6.25a2.78,2.78,0,0,1-.48,1.09,1.94,1.94,0,0,1-1.39.92l-.91.21.06,1.18.07,1.18.89.06a3.83,3.83,0,0,0,3.12-1.5c.88-1.15,1.37-2.55,3.21-9l1.75-6.17-1.49-.07c-.93,0-1.55,0-1.64.17s-.6,2.86-1.42,7.83c-.12.76-.49,1-.49.26,0-.36-1.05-4.94-1.72-7.5l-.21-.8H9.84ZM32.21,76c-.92,4.3-1.72,8-1.77,8.3-.1.46,0,.48,1.41.48s1.52,0,1.61-.48c.06-.26.23-1.1.39-1.86L34.14,81,35.66,81c1.43-.06,1.52,0,1.62.43.06.27.24,1.11.39,1.87L38,84.67l1.51.06,1.5.06-.26-1.34c-.14-.74-.86-4.48-1.61-8.32l-1.36-7H33.89Zm10.72.48v8.3h3.18l.06-7,0-7h4.25l.07-1.33.06-1.33H42.93Zm42.21-8a3.77,3.77,0,0,0-.13,1c0,1.28.12,1.39,1.61,1.39H88V84.77h3.19l0-6.87L91.28,71,92.71,71l1.44-.06V68.16H89.71C85.85,68.16,85.25,68.2,85.14,68.5Zm34.3,8v8.31l1.42-.06,1.43-.06,1.45-3.73c.8-2,1.69-4.47,2-5.38a8.41,8.41,0,0,1,.66-1.65,45.83,45.83,0,0,1,0,4.78c-.08,2.62-.09,5.07,0,5.43.14.64.17.65,1.4.65H129V68.14l-1.43.06-1.42.07-2,5.21c-1.08,2.87-2.06,5.37-2.19,5.54s-.21,0-.13-1,.18-8,.13-9.64c0-.18-.41-.26-1.29-.26h-1.27ZM5.25,70.92A2.91,2.91,0,0,1,6,74.67,2.1,2.1,0,0,1,3.79,76c-.48-.07-.5-.12-.56-2.61-.06-2.66,0-2.88.91-2.88A2.63,2.63,0,0,1,5.25,70.92Zm52.28,0c2,1.25.86,5.41-1.46,5.08-.48-.07-.5-.12-.54-2.52a22.33,22.33,0,0,1,0-2.71C55.71,70.37,56.76,70.45,57.53,70.92Zm43.86.13a3.68,3.68,0,0,1,.28,4,2.42,2.42,0,0,1-1.9,1h-.52V70.45l.86.11A3,3,0,0,1,101.39,71.05ZM69,70.88c.91.6,1.43,4.11,1.12,7.5-.26,2.86-.84,3.94-2,3.8-.48-.06-.7-.28-1.12-1.14s-.54-1.41-.61-3.84c-.12-4.2.52-6.49,1.82-6.48A1.86,1.86,0,0,1,69,70.88Zm43.9.31c.57.89.82,2,1,4.1.2,3.37-.38,6.11-1.44,6.78-.67.42-1.47,0-2-1.09-.41-.89-.46-1.37-.46-4.19,0-3.52.11-4.35.74-5.38.34-.57.56-.7,1.14-.7A1.06,1.06,0,0,1,112.89,71.19ZM36.22,74c.22,1.44.46,3,.55,3.51a2.51,2.51,0,0,1,0,1,4.24,4.24,0,0,1-1.27.12c-1.14,0-1.14,0-1-.59.3-1.43,1-5.68,1-6.14,0-.29.08-.52.17-.52A10.42,10.42,0,0,1,36.22,74Z" />
</svg>