<svg width="30" height="34" viewBox="0 0 30 34" fill="none" xmlns="http://www.w3.org/2000/svg">
<path d="M8.2219 17.4039C8.2219 16.5299 7.6147 16.0078 6.54405 16.0078C6.10705 16.0078 5.8115 16.0504 5.65625 16.0918V18.8989C5.84025 18.9403 6.06565 18.9553 6.375 18.9553C7.51695 18.9553 8.2219 18.3768 8.2219 17.4039ZM14.8528 16.0354C14.3733 16.0354 14.0628 16.078 13.8788 16.1205V22.3397C14.0628 22.3823 14.3583 22.3823 14.6263 22.3823C16.5721 22.3961 17.8417 21.3243 17.8417 19.0542C17.8566 17.0796 16.6997 16.0354 14.8528 16.0354Z" fill="#374CF9"/>
<path d="M27.5557 12.3811H26.776V8.61943C26.7754 8.59553 26.7731 8.57171 26.7691 8.54813C26.7704 8.39684 26.7169 8.25021 26.6185 8.13528L20.359 0.986881L20.3544 0.982281C20.2749 0.896021 20.1736 0.832844 20.0611 0.799431L20.0266 0.787931C19.9789 0.776018 19.9298 0.769842 19.8806 0.769531H4.49705C3.7944 0.769531 3.224 1.34108 3.224 2.04258V12.3811H2.4443C1.4392 12.3811 0.625 13.1953 0.625 14.2004V23.6626C0.625 24.6665 1.44035 25.4819 2.4443 25.4819H3.224V31.9598C3.224 32.6613 3.7944 33.2329 4.49705 33.2329H25.5029C26.2044 33.2329 26.776 32.6613 26.776 31.9598V25.4819H27.5557C28.5608 25.4819 29.375 24.6665 29.375 23.6626V14.2004C29.375 13.1953 28.5596 12.3811 27.5557 12.3811ZM4.49705 2.04258H19.2435V8.55618C19.2435 8.90808 19.5287 9.19213 19.8806 9.19213H25.5041V12.3811H4.49705V2.04258ZM20.1256 18.9821C20.1256 20.8014 19.4632 22.0572 18.5443 22.8323C17.5438 23.6637 16.0212 24.0593 14.1593 24.0593C13.045 24.0593 12.2561 23.988 11.719 23.919V14.5822C12.5091 14.4557 13.5383 14.3855 14.6251 14.3855C16.4294 14.3855 17.6002 14.7098 18.5167 15.401C19.5046 16.1335 20.1256 17.3042 20.1256 18.9821ZM3.52415 23.9616V14.5822C4.18655 14.4695 5.11805 14.3855 6.42905 14.3855C7.755 14.3855 8.7003 14.6397 9.33395 15.1468C9.94 15.6264 10.3482 16.4164 10.3482 17.3468C10.3482 18.2783 10.0389 19.0672 9.47425 19.6031C8.74055 20.2942 7.65495 20.6047 6.38535 20.6047C6.1036 20.6047 5.84945 20.5909 5.6528 20.5622V23.9616H3.52415ZM25.5029 31.6148H4.49705V25.4819H25.5029V31.6148ZM27.3475 16.2186H23.694V18.391H27.1072V20.1401H23.694V23.9616H21.5377V14.4557H27.3475V16.2186Z" fill="#374CF9"/>
</svg>
