<svg id="Layer_1" data-name="Layer 1" xmlns="http://www.w3.org/2000/svg" viewBox="0 0 47 47"><path d="M46.57,18.16H32.92a.44.44,0,0,0-.43.43v2.56a.43.43,0,0,0,.43.43H46.57a.43.43,0,0,0,.43-.43V18.59A.45.45,0,0,0,46.57,18.16Zm-7.15,7.26h-6.5a.44.44,0,0,0-.43.42v2.57a.44.44,0,0,0,.43.42h6.5a.42.42,0,0,0,.43-.42V25.84A.42.42,0,0,0,39.42,25.42Zm-17.79-12H19.3a.58.58,0,0,0-.6.58h0V27.21a.62.62,0,0,0,.24.49l8,5.81a.58.58,0,0,0,.81-.11v0l1.37-1.87h0a.59.59,0,0,0-.11-.83h0L22.2,25.8V14A.59.59,0,0,0,21.63,13.4Z"/><path d="M39.1,32.13H36a.85.85,0,0,0-.73.4,17,17,0,1,1-2.44-21.07l.06.06a17,17,0,0,1,2.38,3,.86.86,0,0,0,.73.41H39.1a.49.49,0,0,0,.48-.5.54.54,0,0,0,0-.21,20.91,20.91,0,1,0,0,18.68.48.48,0,0,0-.21-.65.46.46,0,0,0-.22-.06Z"/></svg>