<svg width="49" height="49" viewBox="0 0 49 49" fill="none" xmlns="http://www.w3.org/2000/svg">
<circle cx="24.5" cy="24.5" r="24.5" fill="#3372E9"/>
<path d="M37.4167 19.0596C37.6094 18.4492 37.4167 18 36.4896 18H33.4219C32.6406 18 32.2813 18.3857 32.0886 18.8154C32.0886 18.8154 30.5261 22.3848 28.3177 24.6992C27.6042 25.3682 27.2761 25.583 26.8854 25.583C26.6927 25.583 26.3958 25.3682 26.3958 24.7578V19.0596C26.3958 18.3271 26.1771 18 25.5313 18H20.7083C20.2188 18 19.9271 18.3418 19.9271 18.6592C19.9271 19.3525 21.0313 19.5137 21.1458 21.4668V25.7051C21.1458 26.6328 20.9688 26.8037 20.5781 26.8037C19.5365 26.8037 17.0052 23.2197 15.5052 19.1182C15.2031 18.3223 14.9063 18 14.1198 18H11.0521C10.1771 18 10 18.3857 10 18.8154C10 19.5771 11.0417 23.3613 14.849 28.3613C17.3854 31.7744 20.9583 33.625 24.2083 33.625C26.1615 33.625 26.4011 33.2148 26.4011 32.5068C26.4011 29.2451 26.224 28.9375 27.2031 28.9375C27.6563 28.9375 28.4375 29.1523 30.2604 30.7979C32.3438 32.751 32.6875 33.625 33.8542 33.625H36.9219C37.7969 33.625 38.2396 33.2148 37.9844 32.4043C37.4011 30.7002 33.4584 27.1943 33.2813 26.96C32.8281 26.4131 32.9584 26.1689 33.2813 25.6807C33.2865 25.6758 37.0313 20.7344 37.4167 19.0596Z" fill="white"/>
</svg>
