<svg width="175" height="196" viewBox="0 0 175 196" fill="none" xmlns="http://www.w3.org/2000/svg">
<path d="M46.8537 100.212C74.6902 100.212 93.7073 81.4078 93.7073 54.8603V44.3519C93.7073 17.8045 74.6902 -1 46.8537 -1C18.7415 -1 0 17.8045 0 44.3519V54.8603C0 81.4078 18.7415 100.212 46.8537 100.212ZM46.8537 78.6424C32.5219 78.6424 23.7024 70.0698 23.7024 54.8603V44.3519C23.7024 29.1424 32.5219 20.5698 46.8537 20.5698C61.1854 20.5698 70.0049 29.1424 70.0049 44.3519V54.8603C70.0049 70.3464 61.1854 78.6424 46.8537 78.6424ZM179.146 197C206.983 197 226 178.196 226 151.648V141.14C226 114.592 206.983 95.7877 179.146 95.7877C151.034 95.7877 132.293 114.592 132.293 141.14V151.648C132.293 178.196 151.034 197 179.146 197ZM179.146 175.43C164.815 175.43 155.995 166.858 155.995 151.648V141.14C155.995 125.93 164.815 117.358 179.146 117.358C193.478 117.358 202.298 125.93 202.298 141.14V151.648C202.298 167.134 193.478 175.43 179.146 175.43ZM44.0976 194.788H70.5561L181.902 1.21228H155.444L44.0976 194.788Z" fill="#F5F6F8"/>
</svg>
