<svg id="Layer_1" data-name="Layer 1" xmlns="http://www.w3.org/2000/svg" viewBox="0 0 112.11 78.06"><defs><style>.cls-1{fill:#b5c5e0;opacity:0.7;}</style></defs><path class="cls-1" d="M57.59,43V69a4,4,0,0,0,4,4h50.52V72H61.59a3,3,0,0,1-3-3V43a3,3,0,0,1,3-3h50.52V39H61.59A4,4,0,0,0,57.59,43Z"/><path class="cls-1" d="M48.59,39H0v1H48.59a3,3,0,0,1,3,3V69a3,3,0,0,1-3,3H0v1H48.59a4,4,0,0,0,4-4V43A4,4,0,0,0,48.59,39Z"/><path class="cls-1" d="M2.59,4V30a4,4,0,0,0,4,4h99a4,4,0,0,0,4-4V4a4,4,0,0,0-4-4h-99A4,4,0,0,0,2.59,4Zm4-3h99a3,3,0,0,1,3,3V30a3,3,0,0,1-3,3h-99a3,3,0,0,1-3-3V4A3,3,0,0,1,6.59,1Z"/></svg>