<svg width="58" height="61" viewBox="0 0 58 61" fill="none" xmlns="http://www.w3.org/2000/svg">
<mask id="path-1-inside-1_486_22496" fill="white">
<path d="M48.2096 20.9497C50.036 25.5575 50.1737 30.6628 48.5983 35.3624C47.0229 40.0619 43.836 44.0528 39.6014 46.6288C35.3668 49.2049 30.3575 50.2 25.4598 49.4383C20.5621 48.6765 16.0917 46.2069 12.8396 42.4664C9.58742 38.7259 7.76316 33.9557 7.68956 28.9996C7.61595 24.0436 9.29774 19.2213 12.4374 15.3858C15.577 11.5504 19.9721 8.94914 24.845 8.04226C29.7179 7.13539 34.7546 7.98136 39.0638 10.4305L38.6625 11.1365C34.5199 8.78206 29.6781 7.96879 24.9936 8.8406C20.3091 9.71241 16.084 12.2131 13.0657 15.9002C10.0475 19.5873 8.43075 24.2232 8.50151 28.9876C8.57227 33.752 10.326 38.3378 13.4524 41.9336C16.5788 45.5295 20.8763 47.9036 25.5846 48.6359C30.2929 49.3682 35.1085 48.4115 39.1794 45.9351C43.2502 43.4586 46.3139 39.6221 47.8284 35.1043C49.3428 30.5864 49.2105 25.6785 47.4547 21.2489L48.2096 20.9497Z"/>
</mask>
<path d="M48.2096 20.9497C50.036 25.5575 50.1737 30.6628 48.5983 35.3624C47.0229 40.0619 43.836 44.0528 39.6014 46.6288C35.3668 49.2049 30.3575 50.2 25.4598 49.4383C20.5621 48.6765 16.0917 46.2069 12.8396 42.4664C9.58742 38.7259 7.76316 33.9557 7.68956 28.9996C7.61595 24.0436 9.29774 19.2213 12.4374 15.3858C15.577 11.5504 19.9721 8.94914 24.845 8.04226C29.7179 7.13539 34.7546 7.98136 39.0638 10.4305L38.6625 11.1365C34.5199 8.78206 29.6781 7.96879 24.9936 8.8406C20.3091 9.71241 16.084 12.2131 13.0657 15.9002C10.0475 19.5873 8.43075 24.2232 8.50151 28.9876C8.57227 33.752 10.326 38.3378 13.4524 41.9336C16.5788 45.5295 20.8763 47.9036 25.5846 48.6359C30.2929 49.3682 35.1085 48.4115 39.1794 45.9351C43.2502 43.4586 46.3139 39.6221 47.8284 35.1043C49.3428 30.5864 49.2105 25.6785 47.4547 21.2489L48.2096 20.9497Z" stroke="#37393E" stroke-opacity="0.5" stroke-width="2" mask="url(#path-1-inside-1_486_22496)"/>
<path d="M3.36 6.888C1.61 6.888 0.77 7.728 0.63 9.03H1.918C2.058 8.428 2.422 8.064 3.36 8.064C4.298 8.064 4.662 8.428 4.662 8.96C4.662 9.52 4.298 9.856 3.36 9.856H2.59V11.004H3.36C4.466 11.004 4.872 11.382 4.872 11.97C4.872 12.53 4.466 12.936 3.36 12.936C2.254 12.936 1.848 12.53 1.708 11.83H0.42C0.56 13.244 1.428 14.112 3.36 14.112C5.292 14.112 6.16 13.244 6.16 12.04C6.16 11.34 5.81 10.766 5.054 10.43C5.656 10.108 5.95 9.562 5.95 8.89C5.95 7.728 5.11 6.888 3.36 6.888Z" fill="#37393E" fill-opacity="0.5"/>
<path d="M6.664 57.112C8.512 57.112 9.73 55.894 9.73 53.766V53.234C9.73 51.092 8.526 49.888 6.664 49.888C4.956 49.888 3.78 50.966 3.64 52.856H2.31V50H1.05V57H2.31V54.004H3.626C3.71 56.006 4.9 57.112 6.664 57.112ZM6.664 55.908C5.67 55.908 4.942 55.18 4.942 53.766V53.234C4.942 51.806 5.656 51.092 6.664 51.092C7.686 51.092 8.414 51.82 8.414 53.234V53.766C8.414 55.194 7.7 55.908 6.664 55.908Z" fill="#37393E" fill-opacity="0.5"/>
<path d="M48.05 57H50.99C52.88 57 53.65 56.23 53.65 54.97C53.65 54.284 53.286 53.682 52.502 53.36C53.09 53.024 53.37 52.52 53.37 51.946C53.37 50.77 52.6 50 50.71 50H48.05V57ZM50.99 53.976C51.998 53.976 52.334 54.312 52.334 54.9C52.334 55.516 51.998 55.852 50.99 55.852H49.31V53.976H50.99ZM50.71 51.148C51.732 51.148 52.054 51.47 52.054 52.016C52.054 52.562 51.732 52.884 50.71 52.884H49.31V51.148H50.71Z" fill="#37393E" fill-opacity="0.5"/>
<path d="M49.78 14.112C51.418 14.112 52.37 13.174 52.65 11.83H51.306C51.096 12.474 50.662 12.908 49.71 12.908C48.674 12.908 47.946 12.18 47.946 10.766V10.234C47.946 8.806 48.66 8.092 49.71 8.092C50.648 8.092 51.096 8.54 51.306 9.03H52.65C52.37 7.84 51.418 6.888 49.78 6.888C47.862 6.888 46.63 8.12 46.63 10.234V10.766C46.63 12.894 47.848 14.112 49.78 14.112Z" fill="#374CF9"/>
<path d="M34.9942 22.0334C34.8997 21.9965 34.7947 21.9974 34.7008 22.0359L22.2922 27.0674C22.0902 27.1495 21.993 27.3798 22.075 27.5818C22.1138 27.6775 22.1885 27.754 22.2831 27.7952L27.3755 30.006L29.6742 35.0599C29.7388 35.202 29.8811 35.2927 30.0372 35.2914L30.0454 35.2913C30.2045 35.2865 30.3451 35.1868 30.4022 35.0383L35.2185 22.5448C35.2978 22.3416 35.1974 22.1127 34.9942 22.0334ZM30.0036 33.8764L28.0313 29.5408C27.9908 29.4517 27.9188 29.3808 27.829 29.3419L23.4604 27.4447L34.1525 23.1115L30.0036 33.8764Z" fill="#374CF9"/>
</svg>
