<svg id="Layer_1" data-name="Layer 1" xmlns="http://www.w3.org/2000/svg" xmlns:xlink="http://www.w3.org/1999/xlink" viewBox="0 0 92.03 23.07"><defs><style>.cls-1{fill:none;}.cls-2{clip-path:url(#clip-path);}.cls-3{fill:#fff;fill-rule:evenodd;}</style><clipPath id="clip-path"><rect class="cls-1" x="0.03" y="0.07" width="92" height="23"/></clipPath></defs><g class="cls-2"><path class="cls-3" d="M49.49,5.64c.22.23,2.21,5.74,2.42,6.42a9.82,9.82,0,0,0,.87,2.09c.69.16.76-.56,1-1.13,1.13-3.09,2.85-7.6,3.71-10.64C58.05.91,58.11.52,57,.52s-1,.73-1.4,1.68C55.26,4,53.8,7.84,53.26,9.6c0,.23,0,.23-.27.23-.9-2.61-1.94-5.81-3-8.4C49.76.92,49.28.82,49,2c-.55,1.79-1.31,3.93-1.89,5.67,0,0-.7,2.21-.76,2.32a7,7,0,0,1-.8-2C44.7,5.83,44,3.58,43.31,1.5c-.17-.4-.17-.63-.55-.86A2.08,2.08,0,0,0,41.58.53c-1.07.18-.38,1.08-.16,1.74,1.3,3.67,2.75,8.06,4.19,11.55a.6.6,0,0,0,.16.22.58.58,0,0,0,.24.11.46.46,0,0,0,.26,0,.44.44,0,0,0,.21-.17C46.69,13.52,49.33,5.64,49.49,5.64Z"/><path class="cls-3" d="M.24.75a1.05,1.05,0,0,0,0,.68c.22,1-.43,11.82-.26,12.26a2.56,2.56,0,0,0,1.68.16c.26-.29.15-.56.15-1,0-1.92.16-3.77.16-5.74.07-.74.12-1.24.12-1.69s0-.4.1-.51a28.1,28.1,0,0,1,2,3.34c.33.67,1,1.69,1.39,2.48.65,1.24,1,.39,1.13.11.38-.51,3.3-5.86,3.51-6,.19.22.19,5.57.19,6,0,2.93-.32,3.21,1.45,3.09.54,0,.6-.45.54-.95V10c-.14-2.42-.24-5.19-.24-7.6,0-.28.1-1.36.1-1.52A1.1,1.1,0,0,0,11.68.5,1,1,0,0,0,11,.63c-.38.23-.48.73-.76,1.07C9.14,3.73,7.67,6,6.64,8c-.38.68-.38.45-.7,0C5.23,6.88,4.32,5,3.69,4L2.38,1.7A4.45,4.45,0,0,0,1.69.63C1.33.36.61.57.24.75Z"/><path class="cls-3" d="M68.92,7.05a3.48,3.48,0,0,1,3.35-.68c1.71.79,1.94,3.45,1.18,4.74a2.8,2.8,0,0,1-1.32,1.11,2.68,2.68,0,0,1-1.7.1,3.75,3.75,0,0,1-1.51-.68Zm0-1.92a41.29,41.29,0,0,1,0-4.45c0-.61-.21-.72-.75-.5-1.31.57-1.31.34-1.12,1.58.1.62,0,7.88,0,8.9,0,2-.28,2.48,2.52,3.33a5.85,5.85,0,0,0,4.65-1c2.75-2.36,2-9-3-8.5a11.26,11.26,0,0,0-1.3.16c-.17.06-.81.45-.89.45Z"/><path class="cls-3" d="M31,13.81a5.59,5.59,0,0,0,.17-2.19,15,15,0,0,1,0-2.32c.15,0,.32.29.65.63s3,3.27,3.43,3.59a1.15,1.15,0,0,0,.53.31,1.26,1.26,0,0,0,.61,0c.37,0,1,0,1.18-.27,0-.39-.75-1-1.08-1.36s-.74-.78-1.12-1.24A23.61,23.61,0,0,1,33,8.52c0-.12,3-2.72,3.51-3.21.2-.23.43-.28.37-.63a3.41,3.41,0,0,0-2,0C34.59,4.81,32.8,6.5,32.32,7c-.15.16-1.08,1.18-1.18,1.13-.16-.52,0-7.56-.11-8S29.09.35,29.15,1a7,7,0,0,1,.15,1.45v9.74c0,.34-.1,1.36.12,1.52A3.38,3.38,0,0,0,31,13.81Z"/><path class="cls-3" d="M17,9.19c.59-.16,2.6.34,2.69.9a10.94,10.94,0,0,1,0,1.81c-.38.5-3,1.51-3.83-.29a2,2,0,0,1-.17-.81,2.08,2.08,0,0,1,.17-.82,1.63,1.63,0,0,1,.49-.52A1.5,1.5,0,0,1,17,9.19Zm2.74-.68A4.47,4.47,0,0,0,18,7.79,5.94,5.94,0,0,0,15.81,8,3,3,0,0,0,14.28,9a3.19,3.19,0,0,0-.61,1.83,3.14,3.14,0,0,0,.55,1.84,3,3,0,0,0,1.49,1.15,4.67,4.67,0,0,0,3.17,0c.23-.11.66-.39.81-.45s.22.4.43.51a2.1,2.1,0,0,0,1.46-.28c.27-.27.32-.23.16-.62a2.81,2.81,0,0,1-.26-1.69V7.27a2.51,2.51,0,0,0-.38-1.63c-1-2.14-7.23-1.3-6.73.51s1.3-.62,4-.28c1.47.16,1.32,1.63,1.32,2.64Z"/><path class="cls-3" d="M83.41,8.24H79a2.44,2.44,0,0,1,.69-1.47,2.54,2.54,0,0,1,1.51-.67,2.11,2.11,0,0,1,.86.11,2.15,2.15,0,0,1,.75.45,1.93,1.93,0,0,1,.51.71A2,2,0,0,1,83.41,8.24ZM78.83,9.7c.32-.17,5.2,0,6.09,0s.48-3-1.13-4.28a4.32,4.32,0,0,0-2.27-.89A4.18,4.18,0,0,0,79.15,5a4.5,4.5,0,0,0-1.74,1.75,4.79,4.79,0,0,0-.59,2.46,4.82,4.82,0,0,0,.54,2.39A4.45,4.45,0,0,0,79,13.41c1.44,1,5.32,1,5.8-.61.6-2-.8-.9-1.3-.68a4.45,4.45,0,0,1-1.3.34A2.77,2.77,0,0,1,78.83,9.7Z"/><path class="cls-3" d="M59.29,8.24A2.38,2.38,0,0,1,60,6.72a2.15,2.15,0,0,1,1.5-.62,2,2,0,0,1,2.2,2.14ZM59.07,9.6h6c.7,0,.58-.45.53-1A4.54,4.54,0,0,0,65,6.46,4.37,4.37,0,0,0,63.42,5a4.1,4.1,0,0,0-2.08-.5,4.15,4.15,0,0,0-2.05.64,4.53,4.53,0,0,0-1.64,1.8,4.8,4.8,0,0,0-.51,2.42,4.5,4.5,0,0,0,.52,2.39,4.11,4.11,0,0,0,1.68,1.7c1.84,1.18,5.44.68,5.77-.67,0-.39.26-1.36-.33-1.13a6.88,6.88,0,0,1-2.27.86,3.08,3.08,0,0,1-1.28-.09,3.31,3.31,0,0,1-1.15-.59C59.62,11.38,58.86,10.2,59.07,9.6Z"/><path class="cls-3" d="M88.3,13.86c.33-.34.28-.5.28-1V11.49c0-1.8-.33-4.78,1.66-5.23.43-.11.54.27,1.08.17A2.65,2.65,0,0,0,92,5.31c0-.86-1.31-1-2.49-.46-.38.17-.69.79-1,.84,0-.5.1-.72-.22-1.17a2.93,2.93,0,0,0-1.19.39c-.53.28-.64.28-.53,1s0,5.35,0,6.47C86.69,14,86.69,14,88.3,13.86Z"/><path class="cls-3" d="M24.84,13.81V13.7A26.39,26.39,0,0,0,25,9.53c0-1.07.26-2.82,1.39-3.16.91-.34,1,.56,1.56,0,1.39-1.52-.48-2.13-1.61-1.63s-1,.9-1.31,1a3.75,3.75,0,0,1,0-.67c0-.29-.11-.29-.22-.45A2.18,2.18,0,0,0,23.59,5c-.53.22-.7.27-.53,1a22.11,22.11,0,0,1,.1,3.15v3.1C23.28,13.86,23.06,14,24.84,13.81Z"/><path class="cls-3" d="M49.12,15.62a28,28,0,0,0-6.3,1.57c-.64.28-1.31.45-1.94.73-1.31.51-2.53,1-3.82,1.47-.43.17-3.5,1.12-4,1.24-2.61.67-6.51,1.46-9,.28-1.18-.62-1.3,1.29,1.4,2a10.51,10.51,0,0,0,4.73-.22c1.31-.28,2.87-.79,4.1-1.18s2.7-.85,4-1.24c.32-.12.58-.23,1-.34l2-.63c.38-.11.65-.27,1-.39l2.06-.51c.37-.11.65-.22,1-.34a37.39,37.39,0,0,1,8.29-.9,18.7,18.7,0,0,1,2.43.29c1.3.16,1-.56.15-1A13,13,0,0,0,49.12,15.62Z"/></g></svg>