<svg id="Layer_1" data-name="Layer 1" xmlns="http://www.w3.org/2000/svg" viewBox="0 0 95.94 48.06"><defs><style>.cls-1{fill:#fff;}</style></defs><path class="cls-1" d="M47.31,25V16h7.37v3.24L58.36,16h6.89L60,20.32,65.31,25H58.77l-4.09-3.6V25Z"/><path class="cls-1" d="M30.31,10V0h4.75L39,4.17,43,0h4.34V10H40.59V8.75h-.28L39,10h-.39L37.26,8.75H37V10Z"/><path class="cls-1" d="M48.82,3.75V0H65.31V3.75L61.69,7.5l3.22,3.33v3.75H36.75v7.09h9.66V25H30.31V11.25H58.47L54.85,7.5l3.62-3.75Z"/><path class="cls-1" d="M10.92,36.44h.75l1.11-2.36.36-.85V38h.76V32.4H12.84l-1.53,3.24L9.77,32.4H8.7V38h.75V33.24l.35.84ZM18.8,38h.81l-2-5.6h-.88l-2,5.6h.79L16,36.46h2.27Zm-2.09-3.57.41-1.19.41,1.19L18,35.78H16.23ZM20.38,38h.75V36h1.09c1.4,0,2.08-.68,2.08-1.79s-.65-1.79-2.08-1.79H20.38Zm1.84-4.91c.93,0,1.3.37,1.3,1.1s-.38,1.11-1.3,1.11H21.13V33.09ZM28.82,38h.75V32.4h-1l-2.21,3.92-.42.82V32.4h-.75V38h1l2.2-3.92.42-.82Zm5.68,0h.75V32.4h-1L32,36.32l-.42.82V32.4h-.75V38h1l2.2-3.92.42-.82Zm-1.45-6.1c.79,0,1.2-.41,1.2-1.1h-.64c0,.4-.19.59-.56.59s-.54-.19-.54-.59h-.66C31.85,31.49,32.27,31.9,33.05,31.9Zm5.64,6.16a2.13,2.13,0,0,0,2.2-1.86h-.81a1.38,1.38,0,0,1-1.39,1.14c-.89,0-1.57-.68-1.57-1.91V35c0-1.24.67-1.91,1.57-1.91a1.42,1.42,0,0,1,1.39,1h.81a2.13,2.13,0,0,0-2.2-1.7A2.35,2.35,0,0,0,36.33,35v.46A2.34,2.34,0,0,0,38.69,38.06Zm6.5-.06h.94L44,35.11l2-2.71h-.91l-1.69,2.38h-.73V32.4h-.75V38h.75V35.46h.72Zm5.43,0h.75V32.4h-1l-2.21,3.92-.42.82V32.4H47V38h1l2.21-3.92.42-.82Zm5.68,0h.75V32.4H56l-2.21,3.92-.42.82V32.4h-.75V38h1l2.21-3.92.42-.82Zm-1.45-6.1c.78,0,1.2-.41,1.2-1.1h-.64c0,.4-.19.59-.56.59s-.54-.19-.54-.59h-.66C53.65,31.49,54.07,31.9,54.85,31.9Zm7.24,6.16c1.28,0,2-.68,2-1.62a1.39,1.39,0,0,0-.84-1.33,1.32,1.32,0,0,0,.72-1.24c0-.89-.65-1.53-1.84-1.53A1.72,1.72,0,0,0,60.17,34H61a1,1,0,0,1,1.14-1c.71,0,1,.34,1,.85s-.34.87-1,.87h-.68v.68h.68c.79,0,1.17.39,1.17.94s-.38.94-1.17.94a1.12,1.12,0,0,1-1.26-1.14h-.78A1.83,1.83,0,0,0,62.09,38.06ZM68.63,38h.82l-2-5.6h-.88l-2,5.6h.78l.55-1.54h2.27Zm-2.09-3.57L67,33.24l.41,1.19.47,1.35H66.06ZM70.21,38h2c1.4,0,2-.56,2-1.58a1.34,1.34,0,0,0-.88-1.33A1.28,1.28,0,0,0,74,33.9c0-.94-.56-1.5-2-1.5h-1.8Zm2-2.54c.87,0,1.18.31,1.18.92s-.31.93-1.18.93H71V35.46ZM72,33.09c.87,0,1.18.31,1.18.85s-.31.84-1.18.84H71V33.09Zm5.36,5a2.37,2.37,0,0,0,2.4-2.63V35A2.41,2.41,0,1,0,75,35v.46A2.35,2.35,0,0,0,77.37,38.06Zm0-.72c-.93,0-1.61-.68-1.61-1.91V35c0-1.25.67-1.91,1.61-1.91S79,33.74,79,35v.46C79,36.68,78.32,37.34,77.37,37.34Zm7.21,1.86h.75V37.31h-.56V32.4H81.13v1.84c0,1.88-.09,2.48-.57,3.07h-.47V39.2h.75V38h3.74Zm-2.7-5V33.09H84v4.22h-2.6C81.82,36.68,81.88,35.86,81.88,34.24ZM2.36,48.06a2.14,2.14,0,0,0,2.2-1.86H3.74a1.38,1.38,0,0,1-1.38,1.14c-.9,0-1.58-.68-1.58-1.91V45c0-1.24.68-1.91,1.58-1.91a1.41,1.41,0,0,1,1.38,1h.82a2.13,2.13,0,0,0-2.2-1.7A2.35,2.35,0,0,0,0,45v.46A2.34,2.34,0,0,0,2.36,48.06ZM9.21,48H10V42.4h-1L6.73,46.32l-.42.82V42.4H5.56V48h1l2.21-3.92.42-.82Zm1.51.06h.16c1,0,1.59-.55,1.59-2.82V43.09h2.18V48h.75V42.4H11.72v2.84c0,1.76-.34,2.1-.84,2.1h-.16Zm9.6-.06h.76V42.4h-1l-2.21,3.92-.41.82V42.4h-.75V48h1l2.21-3.92.41-.82Zm5.33,0h1l-2.12-2.89,2-2.71h-.92l-1.68,2.38h-.73V42.4h-.75V48h.75V45.46h.71Zm5.49,0H32l-2-5.6H29L27,48h.79l.54-1.54h2.27Zm-2.09-3.57.41-1.19.41,1.19.47,1.35H28.57Zm2.55-1.34h1.78V48h.75V43.09h1.79V42.4H31.6ZM40.36,48h.76V42.4h-.76v2.38H37.47V42.4h-.75V48h.75V45.46h2.89Zm4.24.06A2.37,2.37,0,0,0,47,45.43V45a2.41,2.41,0,1,0-4.8,0v.46A2.35,2.35,0,0,0,44.6,48.06Zm0-.72c-.93,0-1.62-.68-1.62-1.91V45c0-1.25.67-1.91,1.62-1.91s1.61.68,1.61,1.91v.46C46.21,46.68,45.54,47.34,44.6,47.34Zm3.48.66h.75V43.09H51.4V42.4H48.08Zm6,.06a2.37,2.37,0,0,0,2.4-2.63V45a2.41,2.41,0,1,0-4.8,0v.46A2.35,2.35,0,0,0,54.07,48.06Zm0-.72c-.93,0-1.61-.68-1.61-1.91V45c0-1.25.67-1.91,1.61-1.91s1.62.68,1.62,1.91v.46C55.69,46.68,55,47.34,54.07,47.34Zm8.86.66h.94l-2.12-2.89,2-2.71H62.8l-1.69,2.38h-.73V42.4h-.75V48h.75V45.46h.71Zm5.43,0h.75V42.4h-1l-2.2,3.92-.42.82V42.4h-.75V48h1l2.21-3.92.42-.82Zm2,0h.75V46h1.09c1.4,0,2.08-.68,2.08-1.79s-.65-1.79-2.08-1.79H70.39Zm1.84-4.91c.93,0,1.3.37,1.3,1.1s-.38,1.11-1.3,1.11H71.14V43.09ZM78.75,48h.75V42.4H75.18V48h.76V43.09h2.81Zm5.68,0h.76V42.4h-1L82,46.32l-.41.82V42.4h-.75V48h1L84,44.08l.41-.82Zm5,0h.76V42.4h-.76v2.77a5.08,5.08,0,0,1-1.24.17C87.35,45.34,87,45,87,44V42.4h-.75V44c0,1.44.58,2,2,2a5.13,5.13,0,0,0,1.24-.16Zm5.66,0h.81l-2-5.6H93L91,48h.79l.54-1.54h2.27ZM93,44.43l.42-1.19.4,1.19.48,1.35H92.56Z"/></svg>