<svg width="1068" height="460" viewBox="0 0 1068 460" fill="none" xmlns="http://www.w3.org/2000/svg">
<path d="M45.068 255.083L196.912 355.15L152.299 422.847L207.515 459.236L252.128 391.539L288.939 415.797L321.109 366.982L284.298 342.723L419.959 136.87L347.258 88.9586L77.2381 206.268L45.068 255.083ZM136.595 245.385L324.378 161.731L229.082 306.335L136.595 245.385Z" fill="white"/>
<path d="M541.423 459.648C626.287 459.648 679.19 406.701 679.19 275.988V247.309C679.19 115.492 627.39 63.6484 541.423 63.6484C456.559 63.6484 403.656 116.596 403.656 247.309V275.988C403.656 407.804 456.008 459.648 541.423 459.648ZM541.423 397.877C499.542 397.877 473.091 371.403 473.091 275.988V247.309C473.091 150.791 498.44 125.42 541.423 125.42C582.753 125.42 609.755 151.894 609.755 247.309V275.988C609.755 372.506 583.855 397.877 541.423 397.877Z" fill="white"/>
<path d="M679.045 203.979L769.275 361.868L698.884 402.095L731.694 459.509L802.086 419.282L823.96 457.558L874.718 428.55L852.845 390.274L1066.89 267.951L1023.69 192.356L729.804 174.972L679.045 203.979ZM765.076 236.692L970.394 246.933L820.034 332.86L765.076 236.692Z" fill="white"/>
</svg>
