
<svg xmlns="http://www.w3.org/2000/svg" viewBox="0 0 92 92" width="92" height="92">
    <circle cx="46" cy="46" r="46" style="fill:#fff" />
    <path
        d="M47 28a15.94 15.94 0 0 0-10.6 3.92 12.66 12.66 0 0 0-4.4 9.44 12.34 12.34 0 0 0 3 8s.41.48.48.55L47 62l11.51-12.09.47-.54a12.36 12.36 0 0 0 3-8 12.66 12.66 0 0 0-4.4-9.44A15.94 15.94 0 0 0 47 28Zm0 18.21a6 6 0 0 1-3-.81 5.07 5.07 0 0 1-2-2.18 4.4 4.4 0 0 1-.31-2.81 4.75 4.75 0 0 1 1.49-2.49 5.75 5.75 0 0 1 2.8-1.33 6.14 6.14 0 0 1 3.15.28 5.42 5.42 0 0 1 2.45 1.79 4.47 4.47 0 0 1-.69 6.13A5.79 5.79 0 0 1 47 46.21Z"
        style="fill:#1361de" />
</svg>