<svg width="45" height="45" viewBox="0 0 45 45" fill="none" xmlns="http://www.w3.org/2000/svg">
<path d="M12.1892 18.7484C11.7711 18.7484 11.3698 18.8122 10.9704 18.8703C11.0998 18.4353 11.2329 17.9928 11.4467 17.5953C11.6604 17.0178 11.9942 16.5172 12.3261 16.0128C12.6036 15.4672 13.0929 15.0978 13.4529 14.6309C13.8298 14.1772 14.3436 13.8753 14.7504 13.4984C15.1498 13.1047 15.6729 12.9078 16.0892 12.6303C16.5242 12.3809 16.9029 12.1053 17.3079 11.9741L18.3186 11.5578L19.2073 11.1884L18.2979 7.55469L17.1786 7.82469C16.8204 7.91469 16.3836 8.01969 15.8867 8.14531C15.3786 8.23906 14.8367 8.49594 14.2329 8.73031C13.6367 8.99656 12.9467 9.17656 12.3054 9.60406C11.6604 10.0128 10.9161 10.3541 10.2598 10.9016C9.62418 11.4659 8.8573 11.9553 8.29105 12.6734C7.6723 13.3447 7.06105 14.0497 6.58668 14.8522C6.0373 15.6172 5.66418 16.4572 5.27043 17.2878C4.91418 18.1184 4.6273 18.9678 4.39293 19.7928C3.94855 21.4466 3.7498 23.0178 3.67293 24.3622C3.60918 25.7084 3.64668 26.8278 3.72543 27.6378C3.75355 28.0203 3.80605 28.3916 3.84355 28.6484L3.89043 28.9634L3.93918 28.9522C4.27267 30.51 5.04037 31.9416 6.15348 33.0813C7.26659 34.221 8.67963 35.0223 10.2291 35.3925C11.7786 35.7627 13.4013 35.6866 14.9093 35.1731C16.4174 34.6596 17.7493 33.7297 18.7509 32.4908C19.7526 31.252 20.383 29.7549 20.5693 28.1727C20.7557 26.5906 20.4902 24.988 19.8038 23.5504C19.1174 22.1127 18.0379 20.8988 16.6904 20.049C15.3429 19.1992 13.7823 18.7483 12.1892 18.7484ZM32.8142 18.7484C32.3961 18.7484 31.9948 18.8122 31.5954 18.8703C31.7248 18.4353 31.8579 17.9928 32.0717 17.5953C32.2854 17.0178 32.6192 16.5172 32.951 16.0128C33.2285 15.4672 33.7179 15.0978 34.0779 14.6309C34.4548 14.1772 34.9685 13.8753 35.3754 13.4984C35.7748 13.1047 36.2979 12.9078 36.7142 12.6303C37.1492 12.3809 37.5279 12.1053 37.9329 11.9741L38.9436 11.5578L39.8323 11.1884L38.9229 7.55469L37.8036 7.82469C37.4454 7.91469 37.0086 8.01969 36.5117 8.14531C36.0036 8.23906 35.4617 8.49594 34.8579 8.73031C34.2636 8.99844 33.5717 9.17656 32.9304 9.60594C32.2854 10.0147 31.5411 10.3559 30.8848 10.9034C30.2492 11.4678 29.4823 11.9572 28.916 12.6734C28.2973 13.3447 27.6861 14.0497 27.2117 14.8522C26.6623 15.6172 26.2892 16.4572 25.8954 17.2878C25.5392 18.1184 25.2523 18.9678 25.0179 19.7928C24.5736 21.4466 24.3748 23.0178 24.2979 24.3622C24.2342 25.7084 24.2717 26.8278 24.3504 27.6378C24.3786 28.0203 24.431 28.3916 24.4685 28.6484L24.5154 28.9634L24.5642 28.9522C24.8977 30.51 25.6654 31.9416 26.7785 33.0813C27.8916 34.221 29.3046 35.0223 30.8541 35.3925C32.4036 35.7627 34.0263 35.6866 35.5343 35.1731C37.0424 34.6596 38.3743 33.7297 39.3759 32.4908C40.3776 31.252 41.008 29.7549 41.1943 28.1727C41.3807 26.5906 41.1152 24.988 40.4288 23.5504C39.7424 22.1127 38.6629 20.8988 37.3154 20.049C35.9679 19.1992 34.4073 18.7483 32.8142 18.7484Z" fill="#1361DE"/>
</svg>
