<svg width="470" height="523" viewBox="0 0 470 523" fill="none" xmlns="http://www.w3.org/2000/svg">
<path d="M239.565 485.118C362.231 485.118 461.672 385.677 461.672 263.01C461.672 140.343 362.231 40.9023 239.565 40.9023C116.898 40.9023 17.457 140.343 17.457 263.01C17.457 385.677 116.898 485.118 239.565 485.118Z" stroke="#AAADCE" stroke-miterlimit="10" stroke-dasharray="4.99 4.99"/>
<path opacity="0.8" d="M239.5 418C355.756 418 450 364.274 450 298C450 231.726 355.756 178 239.5 178C123.244 178 29 231.726 29 298C29 364.274 123.244 418 239.5 418Z" fill="url(#paint0_linear_928_20102)"/>
<g opacity="0.2">
<path d="M239.565 400.256C335.796 400.256 413.806 352.464 413.806 293.509C413.806 234.554 335.796 186.762 239.565 186.762C143.334 186.762 65.3242 234.554 65.3242 293.509C65.3242 352.464 143.334 400.256 239.565 400.256Z" stroke="#FEFFFF" stroke-miterlimit="10"/>
<path d="M239.565 376.957C314.818 376.957 375.823 339.596 375.823 293.508C375.823 247.42 314.818 210.059 239.565 210.059C164.311 210.059 103.307 247.42 103.307 293.508C103.307 339.596 164.311 376.957 239.565 376.957Z" stroke="#FEFFFF" stroke-miterlimit="10"/>
</g>
<path d="M239.5 81C261.868 81 280 62.8675 280 40.5C280 18.1325 261.868 0 239.5 0C217.132 0 199 18.1325 199 40.5C199 62.8675 217.132 81 239.5 81Z" fill="url(#paint1_linear_928_20102)"/>
<path d="M245.518 59.4615C245.518 62.5385 243.066 65 240 65C236.934 65 234.482 62.5385 234.482 59.4615C234.482 56.3846 236.934 53.9231 240 53.9231C243.066 53.9231 245.518 56.3846 245.518 59.4615ZM227.431 48.7949L231.62 52.2821C235.81 47.2564 244.292 47.2564 248.482 52.2821L252.672 48.7949C249.504 45 244.905 42.8462 240.102 42.8462C235.197 42.9487 230.599 45.1026 227.431 48.7949ZM219.766 41L223.854 44.6923C228.044 40.0769 233.869 37.5128 240.102 37.5128C246.234 37.5128 252.161 40.1795 256.35 44.6923L260.438 41C255.226 35.2564 247.869 31.9744 240.204 31.9744C232.336 31.9744 224.978 35.2564 219.766 41ZM212 33.2051L215.985 37C222.219 30.3333 230.905 26.5385 240 26.5385C249.197 26.5385 257.679 30.2308 264.015 37L268 33.2051C260.745 25.4103 250.526 21 240 21C229.474 21 219.255 25.4103 212 33.2051Z" fill="#F6F6FF"/>
<path d="M348.289 198.34L348.007 303.534L239.848 366.368L240.13 261.174L348.289 198.34Z" fill="#E6E1FF"/>
<path d="M239.424 135.504L131.265 198.338L130.982 303.532L239.848 366.366L240.13 261.172L348.289 198.338L239.424 135.504Z" fill="#F6F6FF"/>
<path d="M178.708 170.806L290.115 106.277L348.289 198.34L239.989 263.433L178.708 170.806Z" fill="url(#paint2_linear_928_20102)"/>
<path fill-rule="evenodd" clip-rule="evenodd" d="M185.062 265.41V310.594L210.479 325.279V280.095L185.062 265.41Z" fill="white"/>
<path fill-rule="evenodd" clip-rule="evenodd" d="M193.111 273.035L189.863 271.199V307.911L207.937 318.36V314.83V281.648L193.111 273.035Z" fill="#A6ECFF"/>
<path opacity="0.5" fill-rule="evenodd" clip-rule="evenodd" d="M200.595 276.281L186.475 286.024V288.283L202.289 277.411L200.595 276.281Z" fill="white"/>
<path opacity="0.5" fill-rule="evenodd" clip-rule="evenodd" d="M207.937 280.66L188.733 294.78V297.039L209.631 281.79L207.937 280.66Z" fill="white"/>
<path fill-rule="evenodd" clip-rule="evenodd" d="M187.604 269.789V309.184L189.864 307.913V271.201L187.604 269.789Z" fill="#1B66DF"/>
<path fill-rule="evenodd" clip-rule="evenodd" d="M207.937 320.901L187.745 309.181L189.863 307.91L207.937 318.359V320.901Z" fill="#6393DF"/>
<path fill-rule="evenodd" clip-rule="evenodd" d="M145.243 230.816V311.865L170.8 326.409V245.501L145.243 230.816Z" fill="white"/>
<path fill-rule="evenodd" clip-rule="evenodd" d="M153.433 238.3L150.044 236.465V309.183L168.259 319.632V316.102V246.914L153.433 238.3Z" fill="#A6ECFF"/>
<path opacity="0.5" fill-rule="evenodd" clip-rule="evenodd" d="M160.916 241.547L146.655 251.29V253.549L162.47 242.818L160.916 241.547Z" fill="white"/>
<path opacity="0.5" fill-rule="evenodd" clip-rule="evenodd" d="M168.258 245.926L148.914 260.046V262.305L169.812 247.055L168.258 245.926Z" fill="white"/>
<path fill-rule="evenodd" clip-rule="evenodd" d="M147.785 235.195V310.314L150.044 309.184V236.466L147.785 235.195Z" fill="#1C67DF"/>
<path fill-rule="evenodd" clip-rule="evenodd" d="M168.259 322.033L147.926 310.313L150.044 309.184L168.259 319.632V322.033Z" fill="#6393DF"/>
<path fill-rule="evenodd" clip-rule="evenodd" d="M286.444 262.02V307.062L260.887 321.747V276.704L286.444 262.02Z" fill="white"/>
<path fill-rule="evenodd" clip-rule="evenodd" d="M278.255 269.645L281.644 267.668V304.38L263.429 314.829V311.44V278.117L278.255 269.645Z" fill="#133263"/>
<path opacity="0.5" fill-rule="evenodd" clip-rule="evenodd" d="M270.771 272.75L285.032 282.634V284.752L269.218 274.021L270.771 272.75Z" fill="white"/>
<path opacity="0.5" fill-rule="evenodd" clip-rule="evenodd" d="M263.428 277.129L282.773 291.249V293.508L261.875 278.4L263.428 277.129Z" fill="white"/>
<path fill-rule="evenodd" clip-rule="evenodd" d="M283.903 266.398V305.652L281.644 304.381V267.669L283.903 266.398Z" fill="#1764DF"/>
<path fill-rule="evenodd" clip-rule="evenodd" d="M263.429 317.369L283.762 305.65L281.644 304.379L263.429 314.828V317.369Z" fill="#6393DF"/>
<path fill-rule="evenodd" clip-rule="evenodd" d="M336.993 235.617V280.66L311.577 295.345V250.302L336.993 235.617Z" fill="white"/>
<path fill-rule="evenodd" clip-rule="evenodd" d="M328.804 243.242L332.192 241.266V277.978L313.978 288.426V285.038V251.714L328.804 243.242Z" fill="#133263"/>
<path opacity="0.5" fill-rule="evenodd" clip-rule="evenodd" d="M321.32 246.348L335.581 256.09V258.35L319.767 247.618L321.32 246.348Z" fill="white"/>
<path opacity="0.5" fill-rule="evenodd" clip-rule="evenodd" d="M313.978 250.727L333.322 264.847V267.106L312.425 251.856L313.978 250.727Z" fill="white"/>
<path fill-rule="evenodd" clip-rule="evenodd" d="M334.452 239.996V279.25L332.192 277.979V241.267L334.452 239.996Z" fill="#1764DF"/>
<path fill-rule="evenodd" clip-rule="evenodd" d="M313.978 290.967L334.31 279.247L332.192 277.977L313.978 288.425V290.967Z" fill="#6393DF"/>
<path d="M231.517 175.889L250.861 164.734L270.064 175.889L250.861 186.903L231.517 175.889Z" fill="white"/>
<path d="M231.517 190.717L250.861 216.697V186.904L231.517 175.891V190.717Z" fill="#F6F6FF"/>
<path d="M270.065 205.543L250.862 216.697V186.904L270.065 175.891V205.543Z" fill="#E6E1FF"/>
<path d="M237.87 175.89L250.861 168.406L263.71 175.89L250.861 183.232L237.87 175.89Z" fill="#133263"/>
<path d="M257.921 141.575L274.865 175.887L308.753 156.26L291.809 122.09L257.921 141.575Z" fill="#EFFAFF"/>
<path d="M260.321 142.283L291.103 124.633L306.352 155.556L275.571 173.206L260.321 142.283Z" fill="url(#paint3_linear_928_20102)"/>
<path d="M267.557 137.959L267.176 138.145L283.161 171.036L283.542 170.851L267.557 137.959Z" fill="#EFFAFF"/>
<path d="M275.291 132.178L274.91 132.363L291.019 165.509L291.4 165.324L275.291 132.178Z" fill="#EFFAFF"/>
<path d="M283.563 127.362L283.182 127.547L299.29 160.693L299.671 160.507L283.563 127.362Z" fill="#EFFAFF"/>
<path d="M300.308 141.384L267.3 160.461L267.512 160.828L300.52 141.75L300.308 141.384Z" fill="#EFFAFF"/>
<path d="M274.865 175.886L273.594 176.309L256.509 142.421L257.921 141.574" fill="#BCC2E7"/>
<path opacity="0.2" d="M291.103 124.633L275.571 173.206L260.321 142.283L291.103 124.633Z" fill="white"/>
<path d="M278.113 181.115L295.057 215.426L328.804 195.799L312.001 161.629L278.113 181.115Z" fill="#EFFAFF"/>
<path d="M280.514 181.822L311.154 164.172L326.404 195.095L295.763 212.745L280.514 181.822Z" fill="url(#paint4_linear_928_20102)"/>
<path d="M287.741 177.471L287.36 177.656L303.345 210.548L303.726 210.363L287.741 177.471Z" fill="#EFFAFF"/>
<path d="M295.476 171.69L295.095 171.875L311.203 205.021L311.584 204.836L295.476 171.69Z" fill="#EFFAFF"/>
<path d="M303.62 166.936L303.239 167.121L319.348 200.267L319.729 200.082L303.62 166.936Z" fill="#EFFAFF"/>
<path d="M320.397 180.935L287.39 200.016L287.602 200.382L320.609 181.301L320.397 180.935Z" fill="#EFFAFF"/>
<path d="M295.057 215.425L293.645 215.848L276.701 181.96L278.113 181.113" fill="#BCC2E7"/>
<path opacity="0.2" d="M311.154 164.172L295.763 212.745L280.514 181.822L311.154 164.172Z" fill="white"/>
<path d="M250.861 178.431V183.232L263.711 175.89L250.861 168.406V178.431Z" fill="#6393DF"/>
<path d="M432.136 190.662C452.645 190.662 469.271 174.036 469.271 153.526C469.271 133.017 452.645 116.391 432.136 116.391C411.626 116.391 395 133.017 395 153.526C395 174.036 411.626 190.662 432.136 190.662Z" fill="url(#paint5_linear_928_20102)"/>
<path fill-rule="evenodd" clip-rule="evenodd" d="M434.962 133.966C436.587 134.464 436.776 136.838 435.25 137.571L434.901 137.739L431.599 137.753L428.297 137.767V139.727V141.687H429.288H429.315C429.848 141.687 430.28 142.119 430.28 142.652V143.617L435.825 143.637C441.766 143.658 441.624 143.652 442.902 143.924C447.271 144.855 450.902 148.332 451.945 152.583C452.245 153.805 452.264 154.037 452.29 156.754L452.313 159.263H453.3H453.319C453.854 159.263 454.287 159.696 454.287 160.231C454.287 160.766 453.854 161.199 453.319 161.199H448.285H443.251C442.717 161.199 442.283 160.766 442.283 160.231C442.283 159.696 442.717 159.263 443.251 159.263H443.295H444.307L444.296 157.06C444.286 155.214 444.27 154.801 444.198 154.514C443.847 153.113 442.867 152.084 441.428 151.603C441.114 151.498 441.031 151.496 435.694 151.481L430.28 151.466V152.435C430.28 152.97 429.846 153.404 429.31 153.404H426.287H423.263C422.728 153.404 422.295 152.971 422.295 152.436V151.469H419.294H417.293C416.741 151.469 416.293 151.021 416.293 150.469V147.546V144.623C416.293 144.071 416.741 143.623 417.293 143.623H419.294H422.295V142.655C422.295 142.121 422.728 141.687 423.263 141.687H423.286H424.278V139.727V137.767L420.977 137.753L417.676 137.739L417.363 137.596C415.955 136.953 415.921 134.788 417.308 134.096L417.665 133.918L426.204 133.909C433.161 133.901 434.783 133.911 434.962 133.966ZM448.84 163.709C452.084 167.001 452.872 168.875 451.83 170.829C450.214 173.862 445.628 173.495 444.496 170.242C443.916 168.573 444.704 166.914 447.455 164.014C448.385 163.033 448.211 163.071 448.84 163.709Z" fill="white"/>
<path d="M432.136 417.662C452.645 417.662 469.271 401.036 469.271 380.526C469.271 360.017 452.645 343.391 432.136 343.391C411.626 343.391 395 360.017 395 380.526C395 401.036 411.626 417.662 432.136 417.662Z" fill="url(#paint6_linear_928_20102)"/>
<path d="M437.219 395.774V397.045C437.219 398.033 436.513 399.022 435.383 399.163L435.101 400.434C434.959 401.14 434.395 401.563 433.689 401.563H430.441C429.735 401.563 429.17 401.14 429.029 400.434L428.747 399.163C427.758 399.022 426.911 398.175 426.911 397.045V395.774C426.911 395.068 427.476 394.503 428.182 394.503H435.948C436.654 394.503 437.219 395.068 437.219 395.774ZM443.29 377.983C443.29 380.948 442.161 383.772 440.184 385.749C438.772 387.302 437.783 389.279 437.501 391.256C437.36 392.103 436.654 392.809 435.665 392.809H428.747C427.899 392.809 427.052 392.103 426.911 391.256C426.629 389.138 425.64 387.161 424.087 385.749C422.251 383.772 420.981 381.089 420.981 378.124C420.981 371.911 425.781 366.969 431.994 366.828C438.207 366.687 443.29 371.77 443.29 377.983ZM432.135 363.157C432.841 363.157 433.406 362.592 433.406 361.886V357.509C433.406 356.803 432.841 356.238 432.135 356.238C431.429 356.238 430.865 356.803 430.865 357.509V361.886C430.865 362.592 431.429 363.157 432.135 363.157ZM417.309 377.983C417.309 377.277 416.745 376.712 416.039 376.712H411.661C410.955 376.712 410.391 377.277 410.391 377.983C410.391 378.689 410.955 379.254 411.661 379.254H416.039C416.745 379.113 417.309 378.548 417.309 377.983ZM452.609 376.712H448.232C447.526 376.712 446.961 377.277 446.961 377.983C446.961 378.689 447.526 379.254 448.232 379.254H452.609C453.315 379.254 453.88 378.689 453.88 377.983C453.88 377.277 453.315 376.712 452.609 376.712ZM419.851 388.432L416.745 391.538C416.321 391.962 416.321 392.809 416.745 393.374C417.027 393.656 417.309 393.797 417.592 393.797C417.874 393.797 418.298 393.656 418.439 393.374L421.545 390.267C421.969 389.844 421.969 388.997 421.545 388.432C421.122 387.867 420.275 387.867 419.851 388.432ZM443.431 367.817C443.714 367.817 444.137 367.675 444.279 367.393L447.385 364.287C447.809 363.863 447.809 363.016 447.385 362.451C446.961 362.027 446.114 362.027 445.549 362.451L442.443 365.557C442.019 365.981 442.019 366.828 442.443 367.393C442.867 367.675 443.149 367.817 443.431 367.817ZM419.851 367.393C420.133 367.675 420.416 367.817 420.698 367.817C420.981 367.817 421.404 367.675 421.545 367.393C421.969 366.969 421.969 366.122 421.545 365.557L418.439 362.451C418.015 362.027 417.168 362.027 416.603 362.451C416.18 362.875 416.18 363.722 416.603 364.287L419.851 367.393ZM444.279 388.432C443.855 388.008 443.008 388.008 442.443 388.432C442.019 388.855 442.019 389.703 442.443 390.267L445.549 393.374C445.832 393.656 446.114 393.797 446.397 393.797C446.679 393.797 447.103 393.656 447.244 393.374C447.667 392.95 447.667 392.103 447.244 391.538L444.279 388.432Z" fill="#E6E1FF"/>
<path d="M263.136 522.662C283.645 522.662 300.271 506.036 300.271 485.526C300.271 465.017 283.645 448.391 263.136 448.391C242.626 448.391 226 465.017 226 485.526C226 506.036 242.626 522.662 263.136 522.662Z" fill="url(#paint7_linear_928_20102)"/>
<path d="M282.904 486.373C281.775 485.667 280.363 485.95 279.657 487.079L276.974 491.315C276.268 492.445 276.55 493.857 277.68 494.563C278.809 495.269 280.221 494.986 280.927 493.857L283.61 489.621C284.175 488.491 283.893 487.079 282.904 486.373Z" fill="#F6F6FF"/>
<path d="M263.983 463.639C261.3 461.945 257.77 462.651 256.076 465.334L252.405 471.123C250.71 473.806 251.416 477.336 254.099 479.03L260.594 483.266L260.171 483.972C259.323 485.243 258.053 486.231 256.499 486.372L249.581 486.937V482.136C249.581 480.16 247.886 478.465 245.909 478.465C243.933 478.465 242.238 480.16 242.238 482.136V498.092C242.238 500.069 243.933 501.763 245.909 501.763C247.886 501.763 249.581 500.069 249.581 498.092V492.726L260.029 491.879C261.583 491.738 262.995 490.891 263.842 489.479L265.536 486.514L273.867 491.879L279.233 483.69L289.258 480.018L263.983 463.639Z" fill="#F6F6FF"/>
<path d="M37.1356 414.662C57.645 414.662 74.2712 398.036 74.2712 377.526C74.2712 357.017 57.645 340.391 37.1356 340.391C16.6262 340.391 0 357.017 0 377.526C0 398.036 16.6262 414.662 37.1356 414.662Z" fill="url(#paint8_linear_928_20102)"/>
<path d="M53.7971 369.9H50.8319V366.088C50.8319 358.463 44.6191 352.25 36.9943 352.25C29.3695 352.25 23.1567 358.463 23.1567 366.088V370.041H20.1915C19.6267 370.041 19.2031 370.465 19.2031 371.03V395.598C19.2031 397.716 21.0387 399.552 23.1567 399.552H50.6907C52.8087 399.552 54.6443 397.716 54.6443 395.598V371.03C54.7855 370.465 54.3619 369.9 53.7971 369.9ZM39.9595 390.515C39.9595 390.798 39.9595 391.08 39.6771 391.221C39.5359 391.362 39.2535 391.504 38.9711 391.504H35.0175C34.7351 391.504 34.4527 391.362 34.3115 391.221C34.1703 391.08 34.0291 390.798 34.0291 390.515L34.5939 384.867C33.6055 384.161 33.0407 383.032 33.0407 381.761C33.0407 379.643 34.8763 377.807 36.9943 377.807C39.1123 377.807 40.9479 379.643 40.9479 381.761C40.9479 383.032 40.3831 384.161 39.3947 384.867L39.9595 390.515ZM44.9015 369.9H29.2283V366.088C29.2283 361.71 32.7583 358.18 37.1355 358.18C41.5127 358.18 45.0427 361.71 45.0427 366.088V369.9H44.9015Z" fill="#F6F6FF"/>
<path d="M46.1356 187.662C66.645 187.662 83.2712 171.036 83.2712 150.526C83.2712 130.017 66.645 113.391 46.1356 113.391C25.6262 113.391 9 130.017 9 150.526C9 171.036 25.6262 187.662 46.1356 187.662Z" fill="url(#paint9_linear_928_20102)"/>
<path d="M69.857 130.477H22.4138C21.7078 130.477 21.2842 131.041 21.2842 131.606V164.365C21.2842 165.071 21.849 165.494 22.4138 165.494H40.205V168.318V168.459H37.6634C37.0986 168.459 36.5338 168.883 36.5338 169.589C36.5338 170.154 36.9574 170.719 37.6634 170.719H55.1722C55.737 170.719 56.3018 170.295 56.3018 169.589C56.3018 169.024 55.8782 168.459 55.1722 168.459H52.6306V168.318V165.494H69.857C70.563 165.494 70.9866 164.929 70.9866 164.365V131.606C70.9866 130.9 70.4218 130.477 69.857 130.477ZM67.739 159.14C67.739 159.846 67.1742 160.27 66.6094 160.27H25.8026C25.0966 160.27 24.673 159.705 24.673 159.14V134.43C24.673 133.724 25.2378 133.301 25.8026 133.301H66.6094C67.3154 133.301 67.739 133.865 67.739 134.43V159.14Z" fill="white"/>
<defs>
<linearGradient id="paint0_linear_928_20102" x1="29.1041" y1="298.002" x2="449.994" y2="298.002" gradientUnits="userSpaceOnUse">
<stop stop-color="#92ACEE" stop-opacity="0.74"/>
<stop offset="1" stop-color="#8696CB" stop-opacity="0.77"/>
</linearGradient>
<linearGradient id="paint1_linear_928_20102" x1="216.201" y1="10.6001" x2="282.744" y2="95.9762" gradientUnits="userSpaceOnUse">
<stop stop-color="#E5D544"/>
<stop offset="1" stop-color="#CF8B4B"/>
</linearGradient>
<linearGradient id="paint2_linear_928_20102" x1="214.72" y1="126.844" x2="341.11" y2="301.825" gradientUnits="userSpaceOnUse">
<stop stop-color="#D5CC7B"/>
<stop offset="1" stop-color="#CF8B4B"/>
</linearGradient>
<linearGradient id="paint3_linear_928_20102" x1="260.278" y1="148.945" x2="306.406" y2="148.945" gradientUnits="userSpaceOnUse">
<stop offset="0.1488" stop-color="#133263"/>
<stop offset="0.3103" stop-color="#173E7B"/>
<stop offset="0.537" stop-color="#1B478C"/>
<stop offset="0.8009" stop-color="#356DC6"/>
<stop offset="0.9662" stop-color="#6393DF"/>
</linearGradient>
<linearGradient id="paint4_linear_928_20102" x1="280.47" y1="188.484" x2="326.457" y2="188.484" gradientUnits="userSpaceOnUse">
<stop offset="0.1488" stop-color="#133263"/>
<stop offset="0.3103" stop-color="#173E7B"/>
<stop offset="0.537" stop-color="#1B478C"/>
<stop offset="0.8009" stop-color="#356DC6"/>
<stop offset="0.9662" stop-color="#6393DF"/>
</linearGradient>
<linearGradient id="paint5_linear_928_20102" x1="410.772" y1="126.11" x2="471.788" y2="204.394" gradientUnits="userSpaceOnUse">
<stop stop-color="#E5D544"/>
<stop offset="1" stop-color="#CF8B4B"/>
</linearGradient>
<linearGradient id="paint6_linear_928_20102" x1="410.772" y1="353.11" x2="471.788" y2="431.394" gradientUnits="userSpaceOnUse">
<stop stop-color="#E5D544"/>
<stop offset="1" stop-color="#CF8B4B"/>
</linearGradient>
<linearGradient id="paint7_linear_928_20102" x1="241.772" y1="458.11" x2="302.788" y2="536.394" gradientUnits="userSpaceOnUse">
<stop stop-color="#E5D544"/>
<stop offset="1" stop-color="#CF8B4B"/>
</linearGradient>
<linearGradient id="paint8_linear_928_20102" x1="15.7722" y1="350.11" x2="76.7877" y2="428.394" gradientUnits="userSpaceOnUse">
<stop stop-color="#E5D544"/>
<stop offset="1" stop-color="#CF8B4B"/>
</linearGradient>
<linearGradient id="paint9_linear_928_20102" x1="24.7722" y1="123.11" x2="85.7877" y2="201.394" gradientUnits="userSpaceOnUse">
<stop stop-color="#E5D544"/>
<stop offset="1" stop-color="#CF8B4B"/>
</linearGradient>
</defs>
</svg>
